<?xml version="1.0" encoding="UTF-8" standalone="no"?>
<svg
   version="1.1"
   class="svg-canvas-logo"
   x="0px"
   y="0px"
   viewBox="200 250 94.300002 82.512503"
   width="33.005001"
   height="33.005001"
   enable-background="new 0 0 115 46"
   xml:space="preserve"
   id="svg54"
   sodipodi:docname="canvas-logo.svg"
   inkscape:version="1.1 (c4e8f9e, 2021-05-24)"
   xmlns:inkscape="http://www.inkscape.org/namespaces/inkscape"
   xmlns:sodipodi="http://sodipodi.sourceforge.net/DTD/sodipodi-0.dtd"
   xmlns="http://www.w3.org/2000/svg"
   xmlns:svg="http://www.w3.org/2000/svg"><defs
   id="defs58" /><sodipodi:namedview
   id="namedview56"
   pagecolor="#ffffff"
   bordercolor="#999999"
   borderopacity="1"
   inkscape:pageshadow="0"
   inkscape:pageopacity="0"
   inkscape:pagecheckerboard="0"
   showgrid="false"
   fit-margin-top="0"
   fit-margin-left="0"
   fit-margin-right="0"
   fit-margin-bottom="0"
   inkscape:snap-global="false"
   inkscape:zoom="8.05"
   inkscape:cx="43.291925"
   inkscape:cy="19.192547"
   inkscape:window-width="1296"
   inkscape:window-height="1003"
   inkscape:window-x="512"
   inkscape:window-y="104"
   inkscape:window-maximized="0"
   inkscape:current-layer="svg54" />
<style
   type="text/css"
   id="style2">
	.st0{fill:#e02d27;}
</style>
<g
   id="g52"
   transform="translate(-6.4,-15.59375)">
	<g
   id="g36">
		<path
   class="st0"
   d="m 220.1,306.8 c 0,-7 -5.2,-12.7 -12,-13.5 -1.1,4.3 -1.7,8.8 -1.7,13.5 0,4.7 0.6,9.2 1.7,13.5 6.8,-0.8 12,-6.6 12,-13.5 z"
   id="path4" />
		<path
   class="st0"
   d="m 228,302.5 c -2.4,0 -4.3,1.9 -4.3,4.3 0,2.4 1.9,4.3 4.3,4.3 2.4,0 4.3,-1.9 4.3,-4.3 0,-2.4 -1.9,-4.3 -4.3,-4.3 z"
   id="path6" />
		<path
   class="st0"
   d="m 287,306.8 c 0,7 5.2,12.7 12,13.5 1.1,-4.3 1.7,-8.8 1.7,-13.5 0,-4.7 -0.6,-9.2 -1.7,-13.5 -6.8,0.8 -12,6.5 -12,13.5 z"
   id="path8" />
		<path
   class="st0"
   d="m 279,302.5 c -2.4,0 -4.3,1.9 -4.3,4.3 0,2.4 1.9,4.3 4.3,4.3 2.4,0 4.3,-1.9 4.3,-4.3 0,-2.4 -1.9,-4.3 -4.3,-4.3 z"
   id="path10" />
		<path
   class="st0"
   d="m 253.4,340.3 c -7,0 -12.7,5.2 -13.5,12 4.3,1.1 8.8,1.7 13.5,1.7 4.7,0 9.2,-0.6 13.5,-1.7 -0.8,-6.7 -6.5,-12 -13.5,-12 z"
   id="path12" />
		<path
   class="st0"
   d="m 253.4,328.1 c -2.4,0 -4.3,1.9 -4.3,4.3 0,2.4 1.9,4.3 4.3,4.3 2.4,0 4.3,-1.9 4.3,-4.3 0,-2.3 -1.9,-4.3 -4.3,-4.3 z"
   id="path14" />
		<path
   class="st0"
   d="m 253.4,273.4 c 7,0 12.7,-5.2 13.5,-12 -4.3,-1.1 -8.8,-1.7 -13.5,-1.7 -4.7,0 -9.2,0.6 -13.5,1.7 0.8,6.8 6.6,12 13.5,12 z"
   id="path16" />
		<path
   class="st0"
   d="m 253.4,277.1 c -2.4,0 -4.3,1.9 -4.3,4.3 0,2.4 1.9,4.3 4.3,4.3 2.4,0 4.3,-1.9 4.3,-4.3 0,-2.4 -1.9,-4.3 -4.3,-4.3 z"
   id="path18" />
		<path
   class="st0"
   d="m 277.1,330.5 c -4.9,4.9 -5.3,12.6 -1.1,18 7.9,-4.6 14.5,-11.2 19.1,-19.1 -5.3,-4.2 -13.1,-3.8 -18,1.1 z"
   id="path20" />
		<path
   class="st0"
   d="m 268.5,321.8 c -1.7,1.7 -1.7,4.4 0,6 1.7,1.7 4.4,1.7 6,0 1.7,-1.7 1.7,-4.4 0,-6 -1.6,-1.6 -4.3,-1.6 -6,0 z"
   id="path22" />
		<path
   class="st0"
   d="m 229.8,283.2 c 4.9,-4.9 5.3,-12.6 1.1,-18 -7.9,4.6 -14.5,11.2 -19.1,19.1 5.4,4.1 13.1,3.8 18,-1.1 z"
   id="path24"
   style="fill:#e8394a;fill-opacity:1" />
		<path
   class="st0"
   d="m 232.4,285.7 c -1.7,1.7 -1.7,4.4 0,6 1.7,1.7 4.4,1.7 6,0 1.7,-1.7 1.7,-4.4 0,-6 -1.6,-1.6 -4.3,-1.6 -6,0 z"
   id="path26" />
		<path
   class="st0"
   d="m 277.1,283.1 c 4.9,4.9 12.6,5.3 18,1.1 -4.6,-7.9 -11.2,-14.5 -19.1,-19.1 -4.2,5.4 -3.8,13.1 1.1,18 z"
   id="path28" />
		<path
   class="st0"
   d="m 274.5,291.7 c 1.7,-1.7 1.7,-4.4 0,-6 -1.7,-1.7 -4.4,-1.7 -6,0 -1.7,1.7 -1.7,4.4 0,6 1.6,1.7 4.3,1.7 6,0 z"
   id="path30" />
		<path
   class="st0"
   d="m 229.8,330.4 c -4.9,-4.9 -12.6,-5.3 -18,-1.1 4.6,7.9 11.2,14.5 19.1,19.1 4.2,-5.3 3.8,-13.1 -1.1,-18 z"
   id="path32" />
		<path
   class="st0"
   d="m 232.4,321.8 c -1.7,1.7 -1.7,4.4 0,6 1.7,1.7 4.4,1.7 6,0 1.7,-1.7 1.7,-4.4 0,-6 -1.6,-1.7 -4.4,-1.7 -6,0 z"
   id="path34" />
	</g>
	<g
   id="g50">
		
		
		
		
		
		
	</g>
</g>
<path
   style="fill:#e8394a;fill-opacity:1;stroke-width:0.124224"
   d="M 15.52795,4.6127465 C 14.61257,4.4130648 13.640508,3.8631267 13.027578,3.198176 12.48092,2.6051219 11.925587,1.5185573 11.887354,0.96721211 c -0.02337,-0.33702102 0.0037,-0.3521984 1.031901,-0.57894356 1.512686,-0.33358091 5.568058,-0.33358091 7.080745,0 1.055286,0.2327139 1.055878,0.23306643 1.017319,0.60552027 -0.06193,0.59815468 -0.581748,1.61433058 -1.130153,2.20928008 -0.632462,0.6861399 -1.70913,1.2677735 -2.673956,1.4445146 -0.857094,0.1570061 -0.800445,0.1581771 -1.68526,-0.034837 z"
   id="path1347"
   transform="matrix(2.8571428,0,0,2.8571428,200,244.10625)" /><path
   style="fill:#e8394a;fill-opacity:1;stroke-width:0.124224"
   d="m 27.00406,9.3924196 c -2.324989,-0.5982353 -3.880593,-2.9457031 -3.50575,-5.290316 0.143845,-0.8997401 0.70315,-1.997529 1.005461,-1.9734907 0.410403,0.032633 2.282306,1.4886389 3.571074,2.7776564 1.076533,1.0767423 2.856832,3.358626 2.856832,3.6617225 0,0.043231 -0.373049,0.2531723 -0.828997,0.4665363 -0.657618,0.3077365 -1.02357,0.3951285 -1.770186,0.4227334 -0.517654,0.019139 -1.11545,-0.01004 -1.328434,-0.064842 z"
   id="path1386"
   transform="matrix(2.8571428,0,0,2.8571428,200,244.10625)" /><path
   style="fill:#e8394a;fill-opacity:1;stroke-width:0.124224"
   d="m 31.893903,21.032953 c -1.268573,-0.265508 -2.53911,-1.29428 -3.160029,-2.55872 -0.315275,-0.642027 -0.348687,-0.835559 -0.347803,-2.014606 8.42e-4,-1.124032 0.04204,-1.38733 0.297981,-1.904617 0.634582,-1.282543 2.013882,-2.395934 3.256916,-2.629031 l 0.450285,-0.08444 0.211931,1.097864 c 0.427749,2.215856 0.385567,5.469264 -0.09807,7.563763 l -0.144869,0.627391 z"
   id="path1425"
   transform="matrix(2.8571428,0,0,2.8571428,200,244.10625)" /><path
   style="fill:#e8394a;fill-opacity:1;stroke-width:0.124224"
   d="m 24.110618,30.577191 c -0.722634,-1.169247 -0.870294,-2.791858 -0.374704,-4.117564 0.38648,-1.033836 1.615294,-2.266815 2.661602,-2.670624 1.366577,-0.527413 3.267004,-0.344521 4.197997,0.404004 l 0.347065,0.279043 -0.719736,1.052761 c -1.248527,1.826227 -3.78038,4.25171 -5.482687,5.252347 l -0.371126,0.218152 z"
   id="path1464"
   transform="matrix(2.8571428,0,0,2.8571428,200,244.10625)" /><path
   style="fill:#e8394a;fill-opacity:1;stroke-width:0.124224"
   d="m 15.093168,32.909329 c -0.887407,-0.0841 -3.010005,-0.451619 -3.16633,-0.548233 -0.240821,-0.148835 0.172588,-1.374917 0.693849,-2.057807 0.639054,-0.837206 1.002624,-1.138158 1.913474,-1.583915 0.725287,-0.354944 0.921489,-0.395218 1.928078,-0.395774 1.013304,-5.59e-4 1.198953,0.03794 1.93851,0.402025 0.97527,0.480124 1.868657,1.383601 2.277462,2.303187 0.430061,0.967397 0.483866,1.301181 0.222656,1.381255 -1.064998,0.326477 -4.507901,0.622448 -5.807699,0.499262 z"
   id="path1503"
   transform="matrix(2.8571428,0,0,2.8571428,200,244.10625)" /><path
   style="fill:#e8394a;fill-opacity:1;stroke-width:0.124224"
   d="M 7.7002052,30.413743 C 5.7823666,29.131128 4.0067547,27.377005 2.7092491,25.483189 1.8699507,24.258164 1.8562711,24.353685 2.9452866,23.834994 4.2802668,23.19915 6.0314945,23.33888 7.3650877,24.187646 c 1.5184301,0.966406 2.3986363,2.940118 2.0806723,4.665551 -0.1499697,0.813811 -0.6963785,2.016368 -0.916182,2.016368 -0.081291,0 -0.4545084,-0.20512 -0.8293728,-0.455822 z"
   id="path1542"
   transform="matrix(2.8571428,0,0,2.8571428,200,244.10625)" /><path
   style="fill:#e8394a;fill-opacity:1;stroke-width:0.124224"
   d="m 0.50952875,20.563806 c -0.54917449,-2.560712 -0.54773843,-5.718852 0.003693,-8.121395 l 0.13795688,-0.601067 0.45080827,0.0836 c 1.2474208,0.231317 2.6118018,1.35974 3.229921,2.671334 0.2751803,0.583908 0.3223142,0.854786 0.3242326,1.863354 0.00195,1.023225 -0.042018,1.274562 -0.3306815,1.890443 -0.6110478,1.303709 -1.9070749,2.399826 -3.1741096,2.68451 l -0.51599381,0.115936 z"
   id="path1581"
   transform="matrix(2.8571428,0,0,2.8571428,200,244.10625)" /><path
   style="fill:#e8394a;fill-opacity:1;stroke-width:0.124224"
   d="m 6.8693849,17.706892 c -1.2654494,-0.771589 -0.792038,-2.613724 0.6717027,-2.613724 0.4692881,0 0.6256243,0.06733 0.9806515,0.42236 0.3516852,0.351685 0.4223603,0.513354 0.4223603,0.966148 0,0.652312 -0.2585878,1.060974 -0.8196987,1.295421 -0.5528162,0.230982 -0.7820882,0.218156 -1.2550158,-0.07021 z"
   id="path1620"
   transform="matrix(2.8571428,0,0,2.8571428,200,244.10625)" /><path
   style="fill:#e8394a;fill-opacity:1;stroke-width:0.124224"
   d="M 9.5987198,11.435577 C 9.1761948,11.246795 8.6969016,10.593401 8.6961165,10.205109 8.6944525,9.3820552 9.5156314,8.6850858 10.354491,8.7975764 c 1.152348,0.1545291 1.59184,1.4048336 0.794577,2.2604836 -0.471238,0.50575 -0.983926,0.630592 -1.5503482,0.377517 z"
   id="path1659"
   transform="matrix(2.8571428,0,0,2.8571428,200,244.10625)" /><path
   style="fill:#e8394a;fill-opacity:1;stroke-width:0.124224"
   d="m 15.679105,8.8123349 c -0.872143,-0.6108724 -0.819711,-2.00273 0.09323,-2.4748285 0.460349,-0.2380558 0.793583,-0.2380804 1.295099,-9.54e-5 0.737449,0.3499425 1.013299,1.190813 0.632331,1.9275248 -0.348413,0.6737562 -1.424184,0.9651844 -2.020656,0.5473991 z"
   id="path1698"
   transform="matrix(2.8571428,0,0,2.8571428,200,244.10625)" /><path
   style="fill:#e8394a;fill-opacity:1;stroke-width:0.124224"
   d="M 22.288005,11.494552 C 21.86737,11.324388 21.36646,10.638527 21.36646,10.232747 c 0,-0.8024618 0.610135,-1.474983 1.338157,-1.474983 0.817786,0 1.519737,0.6431638 1.518521,1.391347 -7.33e-4,0.452174 -0.462935,1.091807 -0.929943,1.286936 -0.479709,0.200435 -0.632384,0.209321 -1.00519,0.05851 z"
   id="path1737"
   transform="matrix(2.8571428,0,0,2.8571428,200,244.10625)" /><path
   style="fill:#e8394a;fill-opacity:1;stroke-width:0.124224"
   d="m 24.8967,17.829956 c -0.420634,-0.170164 -0.921545,-0.856025 -0.921545,-1.261805 0,-0.854215 0.612044,-1.474983 1.454252,-1.474983 1.479607,0 1.922946,2.032537 0.582122,2.6688 -0.438396,0.208032 -0.725385,0.225534 -1.114829,0.06799 z"
   id="path1776"
   transform="matrix(2.8571428,0,0,2.8571428,200,244.10625)" /><path
   style="fill:#e8394a;fill-opacity:1;stroke-width:0.124224"
   d="m 21.834258,23.79901 c -0.358931,-0.320705 -0.405687,-0.436414 -0.405687,-1.003979 0,-0.567565 0.04676,-0.683274 0.405687,-1.003979 0.572996,-0.511972 1.38694,-0.514431 1.895644,-0.0057 0.638177,0.638176 0.638177,1.381236 0,2.019412 -0.508704,0.508704 -1.322648,0.506245 -1.895644,-0.0057 z"
   id="path1815"
   transform="matrix(2.8571428,0,0,2.8571428,200,244.10625)" /><path
   style="fill:#e8394a;fill-opacity:1;stroke-width:0.124224"
   d="m 15.704386,26.66019 c -1.136935,-0.693302 -0.666731,-2.622923 0.639146,-2.622923 1.586196,0 2.12921,2.001936 0.723898,2.6688 -0.52578,0.249499 -0.899277,0.236928 -1.363044,-0.04588 z"
   id="path1854"
   transform="matrix(2.8571428,0,0,2.8571428,200,244.10625)" /><path
   style="fill:#e8394a;fill-opacity:1;stroke-width:0.124224"
   d="m 9.2214931,23.81586 c -0.7557025,-0.705932 -0.5712547,-1.842084 0.3740411,-2.303999 0.5816198,-0.284206 1.1706448,-0.129502 1.6426368,0.431428 0.477657,0.567664 0.436634,1.251471 -0.107736,1.795841 -0.355027,0.355028 -0.511364,0.422361 -0.980652,0.422361 -0.439147,0 -0.6372518,-0.07376 -0.9282899,-0.345631 z"
   id="path1893"
   transform="matrix(2.8571428,0,0,2.8571428,200,244.10625)" /></svg>
