<?xml version="1.0" standalone="no"?>
<!DOCTYPE svg PUBLIC "-//W3C//DTD SVG 20010904//EN"
 "http://www.w3.org/TR/2001/REC-SVG-20010904/DTD/svg10.dtd">
<svg version="1.0" xmlns="http://www.w3.org/2000/svg"
 width="2400.000000pt" height="2400.000000pt" viewBox="0 0 2400.000000 2400.000000"
 preserveAspectRatio="xMidYMid meet">

<g transform="translate(0.000000,2400.000000) scale(0.100000,-0.100000)"
fill="#000000" stroke="none">
<path d="M7846 15898 c-3 -7 -18 -301 -35 -653 -17 -352 -34 -682 -38 -732
l-6 -93 92 0 91 0 0 34 c0 109 65 381 120 503 91 199 266 383 445 464 158 71
353 89 988 89 l458 0 -4 -2562 c-3 -2353 -4 -2572 -20 -2674 -34 -222 -85
-320 -215 -408 -125 -86 -260 -116 -513 -116 l-149 0 0 -85 0 -85 1340 0 1340
0 0 84 0 83 -192 6 c-214 5 -301 22 -415 77 -123 61 -193 146 -228 280 -51
197 -49 81 -52 2838 l-4 2563 553 -4 c608 -4 652 -8 833 -68 146 -49 256 -120
366 -235 164 -173 243 -372 294 -736 l6 -48 90 0 90 0 -6 93 c-6 93 -65 1340
-65 1377 0 20 -9 20 -2580 20 -2056 0 -2581 -3 -2584 -12z"/>
<path d="M16400 15797 l0 -83 120 -13 c385 -39 663 -173 946 -456 275 -275
326 -344 1253 -1702 l581 -853 -782 -986 c-846 -1067 -917 -1153 -1083 -1319
-194 -194 -406 -346 -640 -460 -183 -89 -264 -114 -492 -151 l-33 -5 0 -84 0
-85 395 -2 395 -3 -80 -143 c-335 -599 -640 -894 -1005 -975 -178 -39 -245
-42 -1095 -42 -921 0 -888 -2 -982 70 -63 48 -95 115 -108 230 -6 56 -10 525
-10 1233 l0 1142 678 0 c372 -1 737 -5 811 -10 286 -20 445 -77 573 -204 101
-101 142 -214 195 -531 l27 -165 83 0 83 0 0 1055 0 1055 -85 0 -85 0 0 -37
c0 -56 -27 -227 -50 -318 -29 -112 -99 -250 -165 -322 -87 -96 -197 -145 -402
-180 -84 -14 -214 -17 -880 -20 l-783 -4 0 1200 0 1201 928 0 c944 0 1086 -5
1257 -39 178 -36 347 -150 441 -297 67 -105 138 -312 187 -549 l23 -110 87 -3
87 -3 0 38 c0 21 -14 299 -30 618 -16 319 -30 601 -30 628 l0 47 -2340 0
-2340 0 0 -80 0 -80 98 0 c335 -1 525 -52 635 -169 77 -83 109 -209 127 -501
13 -220 13 -4184 0 -4423 -11 -194 -30 -308 -62 -371 -36 -71 -111 -139 -200
-184 -141 -69 -207 -84 -415 -89 l-183 -5 0 -84 0 -84 2334 0 c1548 0 2337 3
2341 10 6 10 515 1488 515 1496 0 2 284 4 630 4 l630 0 0 84 0 84 -67 7 c-260
24 -369 60 -454 152 -64 68 -82 121 -77 225 6 110 31 171 126 307 42 61 392
513 776 1006 l699 896 221 -333 c623 -940 1018 -1541 1059 -1613 56 -96 77
-173 77 -276 0 -65 -4 -85 -31 -137 -70 -141 -188 -199 -450 -223 l-129 -12 0
-84 0 -83 1345 0 1345 0 0 84 0 85 -47 6 c-215 26 -386 78 -525 161 -178 107
-406 362 -733 824 -234 330 -1556 2313 -1551 2326 3 8 166 220 363 472 196
251 494 633 662 847 387 496 514 649 670 809 190 193 392 336 591 415 84 33
235 66 353 76 l77 7 0 84 0 84 -1115 0 -1115 0 0 -85 0 -85 63 0 c111 0 290
-20 357 -40 109 -33 213 -132 240 -228 22 -80 6 -192 -40 -285 -12 -24 -59
-95 -104 -158 -96 -134 -1235 -1579 -1245 -1579 -3 1 -241 353 -528 783 -606
907 -653 990 -653 1151 0 111 81 220 204 276 73 33 222 65 349 75 l87 7 0 84
0 84 -1450 0 -1450 0 0 -83z"/>
<path d="M1060 15775 l0 -85 168 0 c92 0 196 -5 232 -11 142 -23 265 -83 352
-172 46 -48 78 -112 101 -207 43 -173 42 -139 42 -2590 0 -2159 -1 -2353 -17
-2446 -35 -206 -88 -303 -215 -390 -125 -86 -248 -114 -494 -114 l-169 0 0
-85 0 -85 2430 0 2429 0 50 158 c304 959 481 1528 477 1537 -5 14 -136 39
-146 28 -4 -4 -24 -48 -45 -98 -53 -127 -178 -373 -242 -480 -170 -280 -390
-490 -635 -605 -154 -72 -338 -109 -648 -130 -208 -15 -1444 -7 -1540 9 -144
25 -249 106 -288 223 -48 148 -47 85 -47 2508 0 2087 1 2284 17 2390 22 150
40 205 88 278 68 101 211 194 355 231 122 32 204 41 403 48 l182 6 0 83 0 84
-1420 0 -1420 0 0 -85z"/>
<path d="M5386 13828 c-852 -1994 -1012 -2354 -1116 -2511 -69 -104 -153 -193
-209 -222 -53 -26 -189 -69 -273 -85 l-58 -11 0 -65 0 -64 770 0 770 0 0 63 0
64 -102 12 c-262 31 -371 80 -432 192 -27 48 -28 57 -24 138 7 121 46 229 262
731 l183 425 949 0 948 0 57 -135 c244 -583 292 -701 322 -792 67 -202 73
-311 21 -395 -57 -92 -166 -142 -359 -164 l-105 -13 0 -63 0 -63 965 0 965 0
0 63 0 63 -104 16 c-269 43 -407 148 -566 434 -83 150 -88 162 -1029 2409
l-836 2000 -66 3 -65 3 -868 -2033z m1151 -75 l411 -978 -419 -3 c-231 -1
-607 -1 -837 0 l-418 3 421 977 c231 538 423 978 426 978 3 0 190 -440 416
-977z"/>
</g>
</svg>
