<?xml version="1.0" encoding="UTF-8" standalone="no"?>
<svg
   xmlns:dc="http://purl.org/dc/elements/1.1/"
   xmlns:cc="http://creativecommons.org/ns#"
   xmlns:rdf="http://www.w3.org/1999/02/22-rdf-syntax-ns#"
   xmlns:svg="http://www.w3.org/2000/svg"
   xmlns="http://www.w3.org/2000/svg"
   xmlns:sodipodi="http://sodipodi.sourceforge.net/DTD/sodipodi-0.dtd"
   xmlns:inkscape="http://www.inkscape.org/namespaces/inkscape"
   version="1.0"
   width="2817.3435pt"
   height="1009.2822pt"
   viewBox="0 0 2817.3435 1009.2822"
   preserveAspectRatio="xMidYMid meet"
   id="svg1718"
   sodipodi:docname="latex.svg"
   inkscape:version="1.0.1 (c497b03c, 2020-09-10)">
  <metadata
     id="metadata1724">
    <rdf:RDF>
      <cc:Work
         rdf:about="">
        <dc:format>image/svg+xml</dc:format>
        <dc:type
           rdf:resource="http://purl.org/dc/dcmitype/StillImage" />
      </cc:Work>
    </rdf:RDF>
  </metadata>
  <defs
     id="defs1722" />
  <sodipodi:namedview
     pagecolor="#ffffff"
     bordercolor="#666666"
     borderopacity="1"
     objecttolerance="10"
     gridtolerance="10"
     guidetolerance="10"
     inkscape:pageopacity="0"
     inkscape:pageshadow="2"
     inkscape:window-width="1028"
     inkscape:window-height="1013"
     id="namedview1720"
     showgrid="false"
     showguides="false"
     inkscape:zoom="0.2090625"
     inkscape:cx="1992.046"
     inkscape:cy="39.108686"
     inkscape:window-x="1627"
     inkscape:window-y="73"
     inkscape:window-maximized="0"
     inkscape:current-layer="svg1718"
     inkscape:snap-grids="true" />
  <g
     id="g2334"
     transform="matrix(1.2888411,0,0,1.2871641,-2.376731,0.37058472)">
    <path
       style="fill:#ef525b;fill-opacity:1;stroke:#ff3300;stroke-width:4.78326"
       d="m 13.033812,837.87351 c -4.500872,-0.85061 -8.1834038,-3.37019 -8.1834038,-5.59905 0,-4.57064 16.9325988,-8.81923 45.8486628,-11.50402 25.18345,-2.3382 46.053759,-13.28024 57.476899,-30.13434 8.7173,-12.8618 9.08102,-27.62006 9.08102,-368.47505 V 67.084427 L 100.3487,50.175535 C 88.249425,38.075823 78.046122,32.645135 64.474262,31.081439 14.577417,25.332519 4.3571217,22.96267 6.1582429,17.559306 8.8268076,9.5536124 369.14363,9.4297308 371.81158,17.43359 c 1.83232,5.496948 -11.27167,8.597386 -57.5332,13.612509 -30.04463,3.25708 -57.09546,17.380242 -65.69313,34.298193 -5.75065,11.315779 -7.10512,68.863458 -8.25275,350.635928 -0.989,242.82157 0.14082,340.75291 4.03977,350.16584 8.86303,21.39723 24.29041,23.39233 169.85873,21.9662 l 133.51926,-1.30807 30.04857,-13.87595 c 36.94446,-17.06035 73.08327,-54.4937 97.76636,-101.26862 20.90672,-39.61853 32.05248,-55.30647 32.27212,-45.42373 0.0837,3.76514 -14.37704,54.07206 -32.13488,111.79312 l -32.287,104.94747 -311.09911,-1.77823 C 161.21182,840.22022 17.534684,838.72407 13.033812,837.87351 Z"
       id="path1749"
       transform="scale(0.75000003)" />
    <path
       style="fill:#ef525b;fill-opacity:1;stroke:#ff3300;stroke-width:4.78326"
       d="m 356.41991,663.34374 c 0,-3.5189 10.49838,-8.96129 23.92351,-12.40204 45.10271,-11.55946 49.99791,-21.00926 227.54036,-439.2475 C 666.34543,73.97561 695.92325,9.6571829 700.81453,9.6117659 c 4.94213,-0.045872 31.59137,58.3540191 85.6364,187.6660341 138.70896,331.88506 168.19899,399.59778 182.82471,419.78796 14.55579,20.0937 45.01386,37.89699 65.17116,38.09377 6.331,0.0617 10.7624,3.05928 10.7624,7.27993 0,6.19719 -17.2729,7.17489 -126.7564,7.17489 -104.13535,0 -126.75635,-1.16941 -126.75635,-6.55283 0,-4.23127 7.73128,-7.42423 21.82249,-9.01252 13.78681,-1.55398 26.29814,-6.62672 33.97699,-13.77602 10.75554,-10.0138 11.86545,-14.06914 9.643,-35.23262 C 855.75758,591.8864 843.03645,553.142 828.86968,518.9417 l -25.75766,-62.18236 -129.51846,-1.27168 -129.51845,-1.27168 -19.36041,44.32101 c -31.96941,73.1863 -39.1468,93.99749 -39.1468,113.50816 0,23.66895 15.59344,37.00262 48.35657,41.34879 15.11876,2.00557 23.39231,5.42283 23.39231,9.66175 0,5.34783 -18.54436,6.55866 -100.44843,6.55866 -79.66067,0 -100.44844,-1.2977 -100.44844,-6.27061 z M 786.83782,417.29746 c -0.20729,-9.86676 -108.21798,-255.89415 -112.33121,-255.8687 -4.79282,0.0297 -112.09388,242.22762 -112.29806,253.47707 -0.0838,4.61672 25.50376,5.97907 112.29806,5.97907 61.82362,0 112.37266,-1.61435 112.33121,-3.58744 z"
       id="path2312"
       transform="scale(0.75000003)" />
    <path
       style="fill:#ef525b;fill-opacity:1;stroke:#ff3300;stroke-width:4.78326"
       d="m 1069.1254,832.87419 c 0,-7.71506 4.8239,-9.24709 35.2684,-11.20086 39.705,-2.54814 59.4772,-12.97732 73.623,-38.8337 7.6303,-13.94712 8.4087,-43.9582 9.6673,-372.71706 l 1.3687,-357.548579 h -80.6202 c -100.6568,0 -119.92982,4.781345 -150.34581,37.298502 -21.06468,22.519837 -33.00187,48.904787 -39.9319,88.262037 -2.41622,13.7223 -5.41492,17.93722 -12.76139,17.93722 -9.12974,0 -9.46168,-2.18053 -6.7353,-44.24514 1.57723,-24.33483 4.21932,-67.03997 5.87131,-94.900308 L 907.53312,6.2711352 1083.0594,3.2532013 c 96.5395,-1.6598639 250.0426,-1.6603417 341.118,-0.00106 l 165.5917,3.016872 2.6655,38.6980827 c 1.4661,21.283941 3.9955,63.989554 5.6209,94.901364 2.8523,54.24249 2.617,56.20329 -6.7439,56.20329 -7.9602,0 -10.718,-4.93134 -15.3809,-27.50374 -11.9423,-57.81034 -40.3241,-93.202699 -86.7703,-108.203146 -18.3959,-5.941218 -43.3325,-7.790871 -105.0348,-7.790871 h -80.9116 l 1.3414,357.548577 c 1.2614,336.24749 1.8665,358.60458 10.1567,375.27438 12.0027,24.13465 39.7884,37.28167 78.7935,37.28167 26.3921,0 29.581,1.03128 29.581,9.56652 0,9.39413 -3.1889,9.56652 -176.9806,9.56652 -169.6397,0 -176.9806,-0.3707 -176.9806,-8.93747 z"
       id="path2314"
       transform="scale(0.75000003)" />
    <path
       style="fill:#ef525b;fill-opacity:1;stroke:#ff3300;stroke-width:4.78326"
       d="m 1466.1359,1033.8025 c 0,-7.4798 5.17,-9.435 32.287,-12.2098 40.2891,-4.1227 69.6881,-20.0595 77.3036,-41.90538 7.3285,-21.02242 11.9569,-422.92865 6.5729,-570.76056 -4.5476,-124.86846 -6.4156,-132.94476 -33.7194,-145.78711 -7.1977,-3.38549 -28.6922,-7.229 -47.7655,-8.54114 -29.825,-2.05182 -34.6786,-3.63662 -34.6786,-11.32321 0,-8.63592 10.4657,-8.93748 310.1767,-8.93748 h 310.1768 l 3.1267,58.15008 c 5.4033,100.48949 4.6377,114.04723 -6.4398,114.04723 -6.3439,0 -9.5665,-3.18884 -9.5665,-9.46608 0,-22.84588 -21.6377,-74.35398 -38.187,-90.9032 -26.9099,-26.90999 -39.7632,-28.77871 -197.9435,-28.77871 h -141.747 v 160.23917 160.23916 l 113.6024,-0.20998 c 118.3767,-0.2186 138.5873,-3.00384 160.0544,-22.05575 13.1143,-11.63882 26.096,-41.62033 30.2279,-69.81204 2.6234,-17.89896 5.2449,-22.72048 12.3535,-22.72048 8.635,0 9.0234,5.97185 9.0234,138.7145 0,133.33797 -0.354,138.7145 -9.1343,138.7145 -7.5802,0 -10.0928,-5.68194 -14.7671,-33.39471 -7.0154,-41.59206 -19.8705,-61.4543 -49.1863,-75.99751 -21.5873,-10.70914 -29.1844,-11.47456 -137.5118,-13.85485 l -114.6621,-2.51944 v 167.84823 167.84822 l 11.5468,13.42073 11.5468,13.42067 h 128.3635 c 142.8615,0 157.0726,-2.13094 194.2587,-29.12913 23.5206,-17.07657 60.8712,-63.90075 82.3191,-103.19818 l 12.1777,-22.31238 -52.9216,-3.42997 c -43.4031,-2.81309 -52.6653,-4.72543 -51.4964,-10.63238 0.8432,-4.2614 11.9481,-9.8923 27.1958,-13.79003 37.8574,-9.67735 77.8225,-32.73352 113.9751,-65.75321 28.4893,-26.02055 251.4901,-299.40589 257.9434,-316.22289 2.438,-6.35355 -78.6345,-129.52265 -169.139,-256.96368 C 2191.729,77.586875 2151.6771,44.160441 2087.1,30.283504 c -30.1283,-6.47425 -37.4065,-9.741124 -37.4065,-16.790179 0,-8.3326759 9.0507,-8.7519199 188.9387,-8.7519199 181.3678,0 188.9387,0.3584 188.9387,8.9441899 0,7.134948 -5.9208,10.109027 -29.2699,14.702689 -50.8242,9.999063 -65.0557,39.390151 -41.067,84.812536 16.7776,31.76842 144.1232,221.50667 147.8525,220.29258 4.8879,-1.5913 155.7082,-193.27747 171.9,-218.4777 30.0793,-46.813875 12.3937,-82.779645 -43.8334,-89.141021 -23.6015,-2.670204 -28.6016,-4.800333 -28.6016,-12.184593 0,-8.5471359 6.5463,-8.9486809 145.8893,-8.9486809 139.095,0 145.8894,0.414785 145.8894,8.9061759 0,6.955328 -5.7055,10.052023 -26.0476,14.137284 -14.3261,2.877108 -37.452,11.010158 -51.3907,18.073442 -44.1365,22.365669 -69.5993,51.737618 -282.2046,325.530323 -2.8314,3.64638 28.3971,54.62934 92.2913,150.67262 170.2548,255.9205 194.6706,283.22492 263.817,295.02914 13.5386,2.31118 20.7166,6.16452 21.7812,11.69263 1.4801,7.68531 -10.4579,8.24538 -175.7434,8.24538 -153.425,0 -177.3313,-0.95498 -177.3313,-7.08377 0,-7.01871 5.0048,-8.84922 39.1736,-14.32796 33.8524,-5.42799 51.0608,-41.41173 35.947,-75.16733 -10.2549,-22.90349 -173.0216,-266.90018 -177.9606,-266.77322 -5.262,0.13527 -196.8848,246.21353 -207.5133,266.48445 -3.6391,6.94046 -6.8267,20.63221 -7.0834,30.42607 -0.7488,28.5551 12.736,38.82069 65.1198,49.57403 7.2347,1.48511 13.154,5.8879 13.154,9.78396 0,5.88193 -10.7529,7.14394 -63.3782,7.43831 -34.858,0.19515 -72.7871,1.80936 -84.2868,3.58744 l -20.9087,3.23291 -33.1788,96.0905 -33.1788,96.09051 -172.7037,3.1621 c -94.9871,1.7391 -234.7732,3.1621 -310.636,3.1621 -131.3334,0 -137.9323,-0.4261 -137.9323,-8.906 z"
       id="path2316"
       transform="scale(0.75000003)" />
  </g>
</svg>
