<?xml version="1.0" encoding="UTF-8" standalone="no"?>
<!-- Created with Inkscape (http://www.inkscape.org/) -->

<svg
   width="199.70898mm"
   height="230.58594mm"
   viewBox="0 0 199.70898 230.58593"
   version="1.1"
   id="svg5"
   inkscape:version="1.1 (c4e8f9e, 2021-05-24)"
   sodipodi:docname="shiny-redo.svg"
   xmlns:inkscape="http://www.inkscape.org/namespaces/inkscape"
   xmlns:sodipodi="http://sodipodi.sourceforge.net/DTD/sodipodi-0.dtd"
   xmlns="http://www.w3.org/2000/svg"
   xmlns:svg="http://www.w3.org/2000/svg">
  <sodipodi:namedview
     id="namedview7"
     pagecolor="#ffffff"
     bordercolor="#999999"
     borderopacity="1"
     inkscape:pageshadow="0"
     inkscape:pageopacity="0"
     inkscape:pagecheckerboard="true"
     inkscape:document-units="px"
     showgrid="false"
     fit-margin-top="0"
     fit-margin-left="0"
     fit-margin-right="0"
     fit-margin-bottom="0"
     inkscape:snap-global="false"
     inkscape:zoom="0.94867184"
     inkscape:cx="558.14875"
     inkscape:cy="450.63001"
     inkscape:window-width="1706"
     inkscape:window-height="1395"
     inkscape:window-x="854"
     inkscape:window-y="23"
     inkscape:window-maximized="0"
     inkscape:current-layer="g10908"
     borderlayer="false"
     inkscape:showpageshadow="true" />
  <defs
     id="defs2" />
  <g
     inkscape:label="Layer 1"
     inkscape:groupmode="layer"
     id="layer1"
     transform="translate(9.2324219,28.289062)"
     style="display:none">
    <path
       class="st5"
       d="m 27.657113,96.240086 v 0 c -0.873125,-0.02646 -0.291042,0 0,0 z m -0.02646,0 c -0.846667,-0.02646 -0.47625,0 -0.185209,0 h 0.449792 -0.02646 -0.238125 c 0.185208,0 0.264583,0.02646 0,0 z m 0.238125,0 c 9.233958,0.211667 18.89125,-1.931458 21.695833,-12.911666 1.825625,-7.090834 -2.725208,-12.250209 -6.746875,-17.436042 -0.02646,-0.02646 -0.05292,-0.05292 -0.05292,-0.105833 -0.15875,-0.661458 -4.524375,-4.683125 -5.741458,-6.19125 0,-0.02646 -0.02646,-0.02646 -0.05292,-0.05292 -0.582083,-0.423333 -1.190625,-2.566458 -1.481666,-3.757083 -0.132292,-0.502708 -0.132292,-1.005417 -0.02646,-1.508125 1.058334,-5.3975 1.640417,-9.339792 8.810625,-8.175625 5.159375,0.846667 2.487084,8.41375 5.265209,9.154583 h 0.05292 c 1.666875,0.15875 4.92125,-3.836458 5.3975,-5.185833 1.852083,-5.23875 -8.837083,-8.440208 -12.091458,-8.228542 -6.535208,0.396875 -10.821458,3.942292 -13.440833,9.789584 -4.815417,10.768541 4.180416,17.938749 9.630833,25.320624 4.1275,5.582709 3.942292,10.556875 -1.11125,15.345834 -5.55625,5.265208 -12.012083,-1.984375 -12.752916,-7.090834 -0.661459,-4.683125 -0.608542,-7.9375 -4.524375,-1.984375 -3.624792,5.529792 0.105833,12.726458 7.170208,13.0175 z M 173.25732,70.681336 v 0.05292 c -0.10583,1.137708 -0.34396,2.248958 -0.74083,3.33375 -0.68792,1.799167 -1.56105,3.545417 -2.61938,5.159375 -1.29646,1.984375 -1.98437,2.778125 -3.33375,4.524375 -2.54,3.307292 -4.49792,5.767917 -7.46125,8.916458 -4.1275,4.365625 -8.73125,9.366246 -13.75833,12.938126 -7.17021,5.13291 -16.21896,6.5352 -24.79146,7.32895 -25.082501,2.27542 -61.991876,5.66209 -69.770626,32.80834 -0.05292,0.15875 -0.185208,0.23812 -0.343958,0.18521 -0.07938,-0.0265 -0.132292,-0.0529 -0.15875,-0.1323 -7.62,-13.0175 -23.997708,-22.56895 -39.184791,-22.11916 -0.15875,0.0265 -0.291042,-0.0529 -0.3175,-0.21167 -0.02646,-0.15875 0.05292,-0.29104 0.211666,-0.3175 39.105417,-19.42042 79.057499,-10.10708 121.284999,-17.64771 10.55688,-1.87854 19.42042,-8.810619 25.79688,-17.144994 2.43416,-3.148542 5.55625,-5.820833 7.69937,-9.181042 0.34396,-0.555625 2.11667,-4.974166 -0.635,-3.095625 -4.25979,2.883959 -7.85812,6.455834 -12.48833,8.704792 -0.21167,0.105833 -0.44979,0.211667 -0.68792,0.291042 -0.0794,0.02646 -0.13229,0.105833 -0.15875,0.185208 -0.66146,2.169583 -1.5875,4.259792 -2.77812,6.19125 -1.4023,2.196042 -3.28084,4.074583 -5.50334,5.476875 -2.06375,1.375833 -4.47145,2.169583 -6.93208,2.354791 -0.34396,0.02646 -0.66146,0.02646 -1.00542,0.02646 -1.95791,0 -3.22791,-0.15875 -4.73604,-0.926042 -1.93146,-1.005417 -2.54,-2.645833 -2.67229,-4.630208 -0.0794,-1.190625 0.66146,-2.487083 1.27,-3.466042 0.60854,-0.978958 1.5875,-2.06375 2.27542,-2.354791 l 0.0529,-0.02646 c 3.43959,-2.54 9.28688,-2.725208 13.25563,-3.81 0.10583,-0.02646 0.18521,-0.105833 0.18521,-0.185208 l 1.98437,-7.249583 c 0.0529,-0.15875 -0.0529,-0.291042 -0.18521,-0.343959 -0.10583,-0.02646 -0.23812,0.02646 -0.29104,0.105834 -1.00541,1.481666 -2.11666,2.883958 -3.30729,4.206875 -1.56104,1.640416 -2.77812,2.645833 -3.70417,3.01625 -1.05833,0.396875 -2.16958,0.635 -3.28083,0.687916 -1.32292,0.07937 -2.46062,-0.449791 -3.33375,-1.561041 -0.87312,-1.11125 -1.34937,-2.751667 -1.45521,-4.92125 -0.0265,-0.343959 -0.0265,-0.740834 0,-1.164167 0.0265,-0.15875 -0.0529,-0.291042 -0.18521,-0.343958 -0.15875,-0.02646 -0.29104,0.05292 -0.34395,0.185208 -0.42334,0.820208 -0.84667,1.5875 -1.27,2.275417 -1.24355,2.169583 -2.80459,4.153958 -4.5773,5.926666 -1.74625,1.74625 -3.43958,2.672292 -5.00062,2.778125 -2.93688,0.185209 -4.52438,-1.481666 -4.73604,-4.974166 -0.21167,-3.33375 1.11125,-10.186459 3.96875,-20.399375 0.15875,-0.449792 0.21166,-0.926042 0.18521,-1.375833 -0.0529,-0.926042 -0.58209,-1.296459 -1.66688,-1.217084 -1.24354,0.105834 -2.43417,0.608542 -3.41312,1.42875 -1.21709,1.031875 -2.2225,2.301875 -2.93688,3.730625 -0.87312,1.5875 -1.64042,3.227917 -2.35479,4.894792 -0.74083,1.825625 -1.34938,3.730625 -1.82563,5.662083 -0.52916,2.143125 -0.97895,3.942292 -1.27,5.344583 -0.3175,1.455209 -0.60854,2.989792 -0.89958,4.577292 -0.21167,1.11125 -0.44979,2.487083 -0.50271,2.69875 l -0.0529,0.211667 -7.276048,0.47625 -0.02646,-0.264584 c -0.05292,-0.635 0.47625,-2.883958 1.534583,-6.82625 -0.211667,0.370417 -0.423333,0.740834 -0.635,1.11125 -1.243542,2.169584 -2.778125,4.153959 -4.550833,5.926667 -1.74625,1.74625 -3.439584,2.672292 -5.000625,2.778125 -0.105834,0 -0.211667,0 -0.3175,0 -2.566459,0 -4.021667,-2.010833 -4.259792,-5.979583 -0.05292,-0.79375 -0.07938,-1.5875 -0.05292,-2.407709 0.02646,-0.15875 -0.05292,-0.291041 -0.185208,-0.343958 -0.15875,-0.02646 -0.291042,0.05292 -0.343958,0.185208 -3.995208,7.328959 -7.593542,11.033125 -10.927292,11.244792 -2.936875,0.185208 -4.524375,-1.561042 -4.7625,-5.212292 -0.264583,-4.048125 0.846667,-9.974791 3.307292,-17.594791 0.529167,-1.878542 0.767292,-3.175 0.714375,-3.862917 -0.07937,-1.058333 -0.555625,-1.190625 -0.9525,-1.190625 h -0.105833 c -0.343959,0.02646 -1.084792,0.238125 -2.645834,1.217084 -1.375833,0.899583 -2.566458,2.010833 -3.545416,3.307291 -1.137709,1.481667 -2.037292,3.148542 -2.69875,4.894792 -0.687917,1.852083 -1.243542,3.466041 -1.640417,4.815416 -0.396875,1.349375 -0.79375,3.01625 -1.190625,4.92125 -0.396875,1.905 -0.740833,3.545417 -1.058333,4.7625 -0.3175,1.217084 -0.635,2.619375 -0.9525,4.233333 l -0.05292,0.211667 -6.985,0.449792 c -0.15875,0 -0.291041,-0.105834 -0.291041,-0.264584 0,-0.02646 0,-0.05292 0,-0.105833 v 0 c 1.031875,-3.571875 2.487083,-9.36625 4.339166,-17.197916 1.852083,-7.831667 3.545417,-14.102292 4.92125,-18.600208 1.190625,-3.915834 2.592917,-7.77875 4.233333,-11.509375 1.27,-2.910417 2.989792,-5.635625 5.08,-8.043333 1.984375,-2.2225 4.206875,-3.413125 6.561667,-3.571875 2.487083,-0.15875 3.81,1.084791 3.995208,3.65125 0.105834,1.719791 -0.396875,4.021666 -1.481666,6.905624 -1.984375,5.106459 -5.291667,11.059584 -9.868959,17.700625 -0.105833,0.105834 -0.105833,0.291042 0,0.396875 0.105834,0.105834 0.291042,0.105834 0.396875,0 0.79375,-0.608541 1.640417,-1.164166 2.54,-1.613958 1.322917,-0.687917 2.778125,-1.084792 4.28625,-1.217083 2.831042,-0.185209 4.339167,1.11125 4.524375,3.836458 0.07937,1.005417 -0.02646,2.010833 -0.3175,2.963333 -0.264583,0.873125 -0.555625,1.905 -0.899583,3.042708 -0.3175,1.137709 -0.582083,2.090209 -0.79375,2.804584 -0.211667,0.740833 -0.47625,1.719791 -0.820208,2.963333 -0.343959,1.243542 -0.608542,2.328333 -0.767292,3.175 -0.47625,2.143125 -0.661458,3.862917 -0.582083,5.106458 0.105833,1.5875 0.740833,1.5875 0.9525,1.5875 h 0.07937 c 2.672291,-0.15875 5.820833,-4.815416 9.392708,-13.81125 0.02646,-0.05292 0.02646,-0.07937 0.05292,-0.132291 0.820209,-2.963334 1.852084,-5.87375 3.095625,-8.678333 1.481667,-3.254375 3.280834,-4.974167 5.3975,-5.106459 l 4.233334,-0.211666 c 0.15875,0 0.291041,0.105833 0.291041,0.264583 0,0.07938 -0.02646,0.15875 -0.07937,0.211667 v 0 c -0.661458,0.635 -1.534583,2.328333 -2.592916,5.053541 -1.11125,2.936875 -1.878542,4.947708 -2.38125,6.297083 -0.502709,1.402292 -1.084792,3.307292 -1.693334,5.688542 -0.608541,2.38125 -0.873125,4.28625 -0.767291,5.715 0.132291,1.878542 0.846666,1.878542 1.084791,1.878542 h 0.07937 c 0.370417,-0.02646 1.058334,-0.291042 2.301875,-1.42875 0.9525,-0.873125 1.772709,-1.852084 2.460625,-2.936875 0.635,-1.031875 1.322917,-2.328334 2.090209,-3.915834 0.767291,-1.5875 1.428755,-2.963333 1.984375,-4.1275 0.60854,-1.243541 0.84667,-1.666875 1.00542,-1.825625 l 0.34396,-0.635 c 1.29645,-5.238749 1.905,-8.916458 1.7727,-10.953749 0,-0.343959 -0.0794,-0.687917 -0.23812,-1.005417 v 0 c -0.0794,-0.105833 -0.0794,-0.291042 0.0529,-0.370417 0.0529,-0.02646 0.10583,-0.05292 0.15875,-0.05292 l 2.93687,-0.185209 c 1.71979,-0.105833 2.80458,0 3.36021,0.370417 0.55562,0.370417 0.89958,0.978958 0.92604,1.613958 0,0.635 -0.0529,1.296459 -0.18521,1.931459 -0.0265,0.15875 0.0794,0.291041 0.23813,0.3175 0.0794,0.02646 0.18521,-0.02646 0.23812,-0.07937 3.30729,-3.439584 6.74688,-5.291667 10.29229,-5.503334 2.83105,-0.185208 4.36563,1.164167 4.52438,3.995209 0.0529,0.899583 0,1.799166 -0.18521,2.69875 -0.18521,0.899583 -0.635,2.645833 -1.42875,5.344583 -1.66687,5.794375 -2.46062,9.68375 -2.32833,11.58875 0.0794,1.349375 0.60854,1.508125 1.00541,1.508125 h 0.0794 c 0.37042,-0.02646 1.05833,-0.291042 2.27542,-1.455209 0.9525,-0.899583 1.7727,-1.905 2.48708,-2.989791 0.76729,-1.243542 1.48167,-2.54 2.11667,-3.862917 0.76729,-1.534583 1.40229,-2.910417 1.95791,-4.074583 0.18521,-0.423334 0.34396,-0.740833 0.47625,-1.005417 0,-0.02646 0.0265,-0.02646 0.0265,-0.05292 0.76729,-3.227917 1.66688,-5.900209 2.69875,-7.963959 1.19063,-2.434166 2.54,-4.048125 3.96875,-4.841875 1.42875,-0.79375 3.38667,-1.243541 5.90021,-1.402291 v 0 c 0.3175,-0.02646 0.58208,0.211666 0.60854,0.502708 0,0.02646 0,0.02646 0,0.05292 0.0265,0.291041 -0.13229,0.608541 -0.44979,1.005416 -1.77271,1.931459 -3.4925,5.344584 -5.15938,10.16 -1.66687,4.815417 -2.38125,8.863542 -2.19604,12.091458 0.10584,1.481667 0.47625,2.248959 1.11125,2.248959 h 0.0529 c 1.56104,-0.105834 3.54542,-2.037292 5.84729,-5.767917 2.24896,-3.545417 4.02167,-7.355416 5.29167,-11.350625 0.15875,-0.529166 0.37041,-1.27 0.66145,-2.275416 0.29105,-1.005417 0.50271,-1.666875 0.60855,-2.037292 0.10583,-0.370417 0.3175,-0.899583 0.58208,-1.561042 0.18521,-0.529166 0.44979,-1.005416 0.76729,-1.455208 0.21167,-0.238125 0.52917,-0.555625 0.89958,-0.9525 0.37042,-0.396875 0.79375,-0.687917 1.29646,-0.846667 1.24354,-0.370416 2.51354,-0.608541 3.81,-0.714375 l 2.93688,-0.185208 c 0.13229,-0.05292 0.29104,0.02646 0.34396,0.15875 0.0529,0.132292 -0.0265,0.291042 -0.15875,0.343958 l -0.0529,0.05292 c -1.32292,1.031875 -2.61938,3.4925 -3.83646,7.328958 -1.00542,3.254375 -1.85208,6.270625 -2.51354,8.942917 -0.66146,2.672291 -1.08479,4.312708 -1.24354,4.894791 -0.15875,0.582084 -0.50271,2.010834 -1.03188,4.180417 -0.39687,1.640417 -0.74083,2.989792 -1.03187,4.074583 -0.0529,0.132292 0,0.291042 0.13229,0.343959 0.0794,0.02646 0.18521,0.02646 0.26458,-0.05292 2.88396,-1.719792 5.52979,-3.783542 7.9375,-6.138333 1.34938,-1.349375 11.58875,-12.726458 12.065,-5.503334 z M 75.282113,37.978837 c -1.031875,0.05292 -2.8575,1.640417 -5.609167,8.73125 -1.905,4.894791 -3.757083,10.4775 -5.529792,16.615833 -0.05292,0.15875 0.05292,0.291042 0.185209,0.343958 0.105833,0.02646 0.238125,0 0.3175,-0.105833 4.7625,-7.276042 8.069791,-13.335 9.816041,-18.071042 1.084792,-3.227916 1.5875,-5.371041 1.534584,-6.323541 -0.07937,-1.164167 -0.529167,-1.164167 -0.661459,-1.164167 z M 143.9944,87.852795 c 0.0529,-0.132292 -0.0265,-0.291042 -0.15875,-0.343959 -0.0529,-0.02646 -0.10583,-0.02646 -0.15875,0 -1.42875,0.291042 -2.8575,0.529167 -4.25979,0.873125 -1.98437,0.47625 -5.00062,0.9525 -6.53521,2.619375 -0.0265,0.02646 -0.0265,0.05292 -0.0529,0.07937 -0.26459,0.582084 -0.3175,1.508125 -0.26459,2.672292 0.0529,0.820208 0.84667,1.5875 1.53459,2.143125 0.635,0.502708 1.45521,0.740833 2.24896,0.661458 3.12208,-0.238125 5.68854,-3.148541 7.64645,-8.704791 z M 96.686904,53.80092 v 0 c 1.693333,-0.07937 3.809996,-0.714375 4.312706,-3.227917 0.23813,-1.137708 -0.44979,-2.434166 -0.87312,-2.804583 -0.423336,-0.370417 -1.005419,-0.529167 -1.772711,-0.47625 -0.767292,0.05292 -1.693333,0.529167 -2.566458,1.349375 -1.164167,1.084792 -1.11125,2.645833 -0.740834,3.677708 0.343959,0.873125 0.9525,1.455209 1.640417,1.481667 z"
       id="path58"
       style="opacity:1;fill:#e8394a;fill-opacity:1;stroke-width:0.264583" />
    <path
       class="st2"
       d="M 189.50274,143.70634 V 31.443629 l -7.7523,-4.471459 -73.50124,-42.439166 -15.954379,-9.2075 -15.954375,9.2075 L 2.8391968,26.97217 -4.9130948,31.443629 V 143.67988 l 7.7522916,4.47146 74.4272912,42.96833 15.054791,8.67833 15.054791,-8.67833 74.42729,-42.96833 z M 2.8391968,139.49946 V 36.17967 L 16.068363,28.533212 92.294821,-15.466996 v 0 l 75.988329,43.867916 13.46729,7.77875 v 103.31979 l -89.455619,51.64667 z"
       id="path24"
       style="fill:#e8394a;fill-opacity:1;stroke-width:0.264583" />
    <path
       class="st1"
       d="m 92.136071,65.125087 c 33.919579,0 63.129579,-15.08125 76.147079,-36.724167 L 92.294821,-15.466996 v 0 L 16.068363,28.55967 C 29.13878,50.123212 58.269404,65.125087 92.136071,65.125087 Z"
       id="path22"
       style="stroke-width:0.264583" />
    <path
       class="st3"
       d="m 92.162529,142.78029 c 0.07937,-0.0794 0.15875,-0.15875 0.238125,-0.23812 h -0.07937 c -0.02646,0.0794 -0.07937,0.15875 -0.15875,0.23812 z"
       id="path26"
       style="stroke-width:0.264583" />
    <g
       id="g4862"
       transform="matrix(0.26458333,0,0,0.26458333,-4.9395531,-24.939079)" />
    <g
       id="g4783" />
  </g>
  <g
     inkscape:label="Layer 1 copy"
     inkscape:groupmode="layer"
     id="g10908"
     transform="translate(9.2324219,28.289062)"
     style="opacity:1">
    <path
       id="path10898"
       style="fill:#e8394a;fill-opacity:1;stroke-width:0.264583"
       class="st2"
       d="m 90.353516,-28.136719 c -33.194631,19.1667933 -66.391524,38.331957 -99.5859379,57.5 0,38.42513 0,76.850259 0,115.275389 33.2927649,19.22088 66.5874979,38.43836 99.8808599,57.65821 33.275782,-19.21008 66.552932,-38.4178 99.828122,-57.62891 0,-38.4349 0,-76.869793 0,-115.304689 -33.28497,-19.218889 -66.57185,-38.4344855 -99.857419,-57.652343 -0.08854,0.05078 -0.177084,0.101562 -0.265625,0.152343 z m 87.076174,65.28125 c 0,33.424479 0,66.848959 0,100.273439 -28.9362,16.70443 -57.8724,33.40885 -86.808596,50.11328 C 61.684896,170.82682 32.748698,154.1224 3.8125,137.41797 c 0,-33.42383 0,-66.847658 0,-100.271486 C 32.748698,20.441406 61.684896,3.7363281 90.621094,-12.96875 119.55729,3.7356771 148.49349,20.440104 177.42969,37.144531 Z" />
    <g
       id="g10904"
       transform="matrix(0.26458333,0,0,0.26458333,-4.9395531,-24.939079)" />
    <g
       id="g10906" />
    <path
       id="path10896"
       style="opacity:1;fill:#e8394a;fill-opacity:1;stroke-width:0.264583"
       class="st5"
       d="m 73.544922,34.027344 c -3.597076,0.07986 -6.669897,2.498099 -8.698085,5.305519 -3.571085,4.499662 -5.498419,10.000196 -7.37319,15.357771 -4.278238,12.849656 -6.720426,26.206921 -10.346694,39.241007 -0.186483,1.102567 1.104741,1.777517 2.049011,1.470118 2.378201,-0.153344 4.756346,-0.307566 7.134583,-0.460353 0.8338,-3.832335 1.775285,-7.648731 2.568405,-11.472877 0.821026,-3.486161 1.831545,-6.960804 3.401304,-10.188655 1.494623,-2.885604 3.853312,-5.462486 6.936541,-6.643155 0.01719,2.383218 -1.032535,4.582885 -1.604288,6.853285 -1.388953,4.832867 -2.621329,9.828226 -2.374252,14.894005 0.09677,2.211354 0.954594,4.720051 3.13479,5.666772 2.474568,1.081223 5.372186,0.123624 7.295456,-1.612704 2.451632,-2.002681 4.224453,-4.676231 5.852981,-7.356046 0.14372,2.30581 0.82924,4.962145 3,6.164063 2.247265,1.170932 4.991408,0.317479 6.834915,-1.225303 1.318326,-1.003382 2.460215,-2.219811 3.497117,-3.507119 -0.175653,0.864413 -0.140146,1.755295 0.01953,2.61914 3.022677,-0.200191 6.045464,-0.39888 9.068364,-0.595703 0.90002,-4.371196 1.62872,-8.780247 2.76512,-13.099826 1.06061,-4.278786 2.69975,-8.439643 5.05211,-12.1738 1.12702,-1.63125 2.83627,-3.247424 4.94443,-3.20229 0.48065,0.09141 0.17481,0.829528 0.1192,1.171229 -1.67504,6.252055 -3.48748,12.529374 -4.01758,19.005859 -0.14239,2.362851 0.13367,5.105645 2.0664,6.728516 2.22682,1.716947 5.4904,1.188692 7.59381,-0.473098 2.73403,-2.013924 4.82924,-4.779302 6.58198,-7.657761 0.29053,2.328865 1.45503,4.873441 3.80965,5.711469 0.79178,0.1483 -0.31387,0.290225 -0.60783,0.476104 -2.1442,0.854693 -4.26124,2.134105 -5.40996,4.212133 -1.03838,1.52061 -1.73376,3.419257 -1.25064,5.264635 0.34268,2.269826 2.11966,4.174071 4.32067,4.774788 2.62985,0.832953 5.50186,0.63833 8.14392,-0.03469 5.36319,-1.522025 9.66402,-5.803771 11.8225,-10.871596 0.44122,-0.983119 0.82114,-1.993668 1.15215,-3.019174 4.73489,-2.130482 8.47106,-5.836959 12.72266,-8.724609 -0.68784,2.324429 -2.54731,4.019911 -4.06955,5.817151 -2.05896,2.202951 -4.00337,4.506858 -5.86935,6.873387 -5.37855,6.363137 -12.35169,11.669114 -20.46735,13.912984 -3.77804,0.99553 -7.79134,1.44747 -11.6957,2.01125 -22.662102,2.95059 -45.64626,1.78549 -68.376567,4.20554 -13.449248,1.45861 -26.844815,4.36365 -39.271876,9.80335 -1.883067,0.84807 -3.813994,1.65239 -5.5938317,2.6852 -0.8890975,0.80806 -0.030246,2.49912 1.1489112,2.24387 9.2116865,-0.19843 18.3336235,3.16329 25.8289655,8.4611 5.015839,3.55892 9.354704,8.07955 12.458144,13.36312 0.73486,0.91067 2.320416,0.29006 2.378906,-0.83203 2.068094,-7.2124 6.940727,-13.44606 13.115873,-17.63458 6.632159,-4.61928 14.364003,-7.34447 22.130221,-9.28729 11.450389,-2.82596 23.185914,-3.86147 34.910464,-4.95908 7.36368,-0.73697 14.90318,-2.03779 21.39999,-5.77491 6.17006,-3.64998 11.02024,-9.034332 15.93641,-14.155845 3.68971,-3.883417 7.00767,-8.097413 10.20382,-12.389215 2.13664,-3.000345 4.09966,-6.314604 4.63537,-10.015779 0.19153,-1.539077 -0.0785,-3.502561 -1.57238,-4.320411 -1.68982,-0.725503 -3.50171,0.266536 -4.87452,1.228248 -4.35944,2.911963 -7.40648,7.345517 -11.67926,10.369956 -0.59523,0.444261 -1.18123,0.859639 -1.77825,1.253359 1.87395,-7.283652 3.49584,-14.696817 5.88542,-21.796197 0.6357,-1.655807 1.33138,-3.356916 2.48567,-4.719428 0.6236,-0.492072 1.39976,-1.29935 0.91016,-2.138672 -0.3839,-0.746341 -1.3084,-0.828357 -2.03791,-0.66087 -2.40776,0.170893 -4.95314,0.208428 -7.15044,1.310184 -1.55722,1.004118 -2.56836,2.635441 -3.12969,4.371757 -1.00218,2.878404 -1.61924,5.885869 -2.85966,8.682587 -1.60276,3.83368 -3.60641,7.540878 -6.22269,10.780717 -0.66836,0.766377 -1.4861,1.695877 -2.48633,1.867188 -0.37005,-1.683583 -0.19206,-3.426403 -0.01,-5.07841 0.64832,-4.476903 2.17481,-8.786238 4.00263,-12.907365 0.8586,-1.890579 1.98152,-3.657116 3.32359,-5.238835 0.71145,-1.012746 0.0916,-2.792882 -1.26588,-2.730948 -2.98227,0.132357 -6.27765,0.696096 -8.38265,3.015258 -2.24884,2.405535 -3.42901,5.574803 -4.4181,8.659621 -0.51396,1.632003 -0.78407,3.349933 -1.65635,4.846839 -1.75397,3.551798 -3.24279,7.432435 -6.23783,10.157324 -0.39077,0.327838 -0.85657,0.724771 -1.29115,0.880031 -0.22049,-2.236896 0.41656,-4.355684 0.86399,-6.518503 0.87108,-3.910492 2.32294,-7.684654 2.97074,-11.643184 0.24151,-2.114544 -0.013,-4.658976 -1.8769,-6.004618 -2.04784,-1.427684 -4.7234,-0.927856 -6.95587,-0.275101 -2.32627,0.760663 -4.41603,2.121106 -6.23047,3.746094 -0.0289,-1.405569 -1.09661,-2.64699 -2.47852,-2.900391 -1.82441,-0.37359 -3.69311,0.0094 -5.53288,0.03851 -0.746,-1.42e-4 -1.63255,0.440904 -1.57063,1.297423 0.0876,0.674197 0.39056,1.304434 0.27494,2.003492 -0.093,3.147473 -0.90838,6.277621 -1.605324,9.364201 -0.315729,1.053531 -1.061067,1.90529 -1.470951,2.925433 -1.52691,3.040689 -2.788787,6.32009 -4.82534,9.015766 -0.838359,1.01824 -1.75623,2.040391 -2.965128,2.618842 -0.451434,-2.538135 0.315284,-5.12759 0.958747,-7.547914 1.140986,-4.268221 2.84206,-8.358051 4.467135,-12.457662 0.476426,-1.170192 1.136606,-2.267283 1.884665,-3.269815 0.423987,-1.053871 -0.788501,-2.084904 -1.796875,-1.755859 -2.210356,0.223133 -4.701297,-0.20561 -6.596848,1.224909 -2.528906,1.833581 -3.606672,4.921197 -4.724528,7.707483 -1.080276,2.681137 -1.682309,5.545785 -2.894466,8.161874 -1.445776,3.339593 -2.968171,6.745671 -5.393419,9.502986 -0.523737,0.565867 -1.142858,1.119321 -1.923942,1.271889 -0.300911,-1.542957 0.07162,-3.141823 0.313875,-4.675614 0.622046,-3.072384 1.563515,-6.219123 2.440573,-9.286542 0.652138,-2.436824 1.736245,-4.916854 1.226494,-7.487893 -0.252516,-1.846956 -1.648764,-3.508315 -3.519554,-3.843042 -2.147198,-0.441662 -4.385123,0.139661 -6.35006,1.009887 3.488014,-5.3841 6.757381,-11.004495 8.75,-17.132812 0.763381,-2.510779 1.372425,-5.40726 0.08789,-7.855469 C 76.8059,34.635108 75.125526,33.905196 73.54473,34.027337 Z m 0.541774,5.73904 c -0.538623,3.502549 -2.289061,7.580829 -4.089256,11.115632 -1.259519,2.487976 -5.840178,10.519474 -7.457818,12.291367 0.696109,-3.469735 4.914964,-15.900477 7.211383,-20.792524 1.551076,-3.484607 3.102094,-4.822031 3.925155,-4.919106 0.694257,0.554501 0.503021,1.656901 0.410536,2.304631 z m -32.88943,0.458225 c -4.637187,0.185241 -9.219691,2.428566 -11.93407,6.242318 -2.497684,3.347626 -4.209976,7.52551 -3.858871,11.761509 0.350948,4.399037 2.754228,8.278929 5.421728,11.663587 2.222607,2.87648 4.731341,5.537023 6.724728,8.586493 1.390348,2.220574 2.279651,5.237252 1.268649,7.85573 -0.821566,2.209695 -2.428793,4.090953 -4.307711,5.480207 -1.60251,1.010444 -3.747601,0.861049 -5.258681,-0.256434 -2.880091,-1.863624 -4.653258,-5.195287 -4.860641,-8.591951 -0.213513,-1.386775 -0.277108,-2.937452 -1.158022,-4.091068 -0.821126,-0.814593 -2.21882,-0.496334 -2.874155,0.371114 -1.490522,1.528859 -2.740185,3.358608 -3.42272,5.390605 -1.126932,3.71149 0.369487,8.021362 3.574049,10.215695 1.067842,0.80378 2.337317,1.252617 3.590013,1.676883 0.2504,-0.083 0.842041,0.144811 1.228516,0.152344 2.67378,0.176719 5.374384,0.03221 8.024616,-0.358764 4.70041,-0.688628 9.442148,-2.72145 12.378403,-6.5911 2.317121,-3.031087 3.67064,-6.849652 3.624325,-10.675136 -0.181672,-4.386033 -2.619714,-8.247869 -5.238791,-11.611867 -1.104795,-1.345873 -2.049206,-2.820993 -3.196062,-4.128131 -1.683865,-1.857044 -3.626749,-3.485977 -5.142702,-5.48511 -0.598539,-1.454162 -1.267884,-3.049312 -0.806341,-4.635169 0.353137,-1.742636 0.635804,-3.486366 1.512802,-5.024489 0.728919,-1.189762 2.117562,-1.80027 3.487083,-1.750198 1.302651,-0.0281 2.770765,-0.0137 3.854714,0.79512 1.340765,1.369182 1.194471,3.440298 1.550781,5.193359 0.07188,1.720338 1.451607,3.90538 3.423666,3.218516 1.742107,-0.653232 2.976486,-2.165111 4.158366,-3.534922 1.073951,-1.36337 2.040827,-3.133943 1.463966,-4.912041 -0.690518,-2.471419 -3.039758,-3.909944 -5.197203,-4.981724 -2.444256,-1.127818 -5.106388,-1.885131 -7.804235,-1.980794 l -0.2262,0.0054 z m 55.447265,5.451172 c -2.351582,0.284994 -4.63914,2.306095 -4.562823,4.795299 -0.02537,1.607373 0.92042,3.492803 2.62923,3.773061 1.976268,0.17114 4.170642,-0.736002 5.126953,-2.544922 1.003809,-1.736101 0.695799,-4.23187 -0.9375,-5.472657 -0.652717,-0.452119 -1.472676,-0.613536 -2.25586,-0.550781 z m 45.996089,36.947266 c -0.90443,0.231715 -1.82437,0.393617 -2.74023,0.572265 1.33372,-0.976847 2.44153,-2.222141 3.5293,-3.457031 -0.26302,0.961589 -0.52604,1.923177 -0.78907,2.884766 z m -1.02427,6.235721 c -0.91962,2.544248 -3.24206,6.205821 -6.28006,6.935446 -0.77336,0.219992 -2.10277,0.21665 -3.27901,-0.956986 -1.11376,-0.744685 -1.27633,-2.099368 -0.95485,-3.758497 0.16209,-0.670815 0.69176,-1.288 2.56363,-1.999735 2.14345,-0.824762 5.64615,-1.552981 7.94353,-1.935286 0.5383,-0.05631 0.67668,-0.138386 0.56142,0.180508 z"
       sodipodi:nodetypes="ccccccccccccccccccccccccccccccccccccccccccccccccccccccccccccccccccccccccccccccccccccccccccccccccccccccccccccccccccccccccccccccccccccccccccccccccccccccccccccscccccss" />
  </g>
  <style
     type="text/css"
     id="style9">
	.st0{fill:#428BCA;}
	.st1{opacity:0.25;fill:url(#SVGID_1_);enable-background:new    ;}
	.st2{fill:#3674A8;}
	.st3{fill:#E6B35A;}
	.st4{fill:#FFFFFF;}
	.st5{opacity:0.9;fill:#FFFFFF;enable-background:new    ;}
</style>
</svg>
