<?xml version="1.0" encoding="UTF-8" standalone="no"?>
<!-- Created with Inkscape (http://www.inkscape.org/) -->

<svg
   width="183.93832mm"
   height="215.10625mm"
   viewBox="0 0 183.93832 215.10624"
   version="1.1"
   id="svg14946"
   inkscape:version="1.1 (c4e8f9e, 2021-05-24)"
   sodipodi:docname="shiny-orange.svg"
   xmlns:inkscape="http://www.inkscape.org/namespaces/inkscape"
   xmlns:sodipodi="http://sodipodi.sourceforge.net/DTD/sodipodi-0.dtd"
   xmlns="http://www.w3.org/2000/svg"
   xmlns:svg="http://www.w3.org/2000/svg">
  <sodipodi:namedview
     id="namedview14948"
     pagecolor="#737d80"
     bordercolor="#999999"
     borderopacity="1"
     inkscape:pageshadow="0"
     inkscape:pageopacity="0.48235294"
     inkscape:pagecheckerboard="true"
     inkscape:document-units="mm"
     showgrid="false"
     fit-margin-top="0"
     fit-margin-left="0"
     fit-margin-right="0"
     fit-margin-bottom="0"
     inkscape:zoom="0.94867184"
     inkscape:cx="315.70453"
     inkscape:cy="364.19338"
     inkscape:window-width="1706"
     inkscape:window-height="1395"
     inkscape:window-x="854"
     inkscape:window-y="23"
     inkscape:window-maximized="0"
     inkscape:current-layer="layer1" />
  <defs
     id="defs14943" />
  <g
     inkscape:label="Layer 1"
     inkscape:groupmode="layer"
     id="layer1"
     transform="translate(-22.018882,-36.485489)">
    <path
       class="st0"
       d="M 205.95721,92.259655 113.8293,36.485489 22.018882,92.259655 V 198.48986 l 91.969168,53.10188 91.96916,-53.10188 z"
       id="path14954"
       style="stroke-width:0.264583;fill:#e8394a;fill-opacity:1" />
    <path
       class="st1"
       d="m 113.8293,122.31632 c 33.91958,0 63.12958,-15.08125 76.14708,-36.724165 L 113.98805,41.724239 v 0 L 37.76159,85.750905 c 13.070417,21.563545 42.201042,36.565415 76.06771,36.565415 z"
       id="path14963"
       style="stroke-width:0.264583" />
    <path
       class="st3"
       d="m 113.85576,199.97153 c 0.0794,-0.0794 0.15875,-0.15875 0.23812,-0.23813 h -0.0794 c -0.0265,0.0794 -0.0794,0.15875 -0.15875,0.23813 z"
       id="path14967"
       style="stroke-width:0.264583" />
    <path
       id="path14999"
       style="stroke-width:0.264583"
       class="st5"
       sodipodi:type="inkscape:offset"
       inkscape:radius="0.55779725"
       inkscape:original="M 96.683594 92.841797 C 94.328802 93.000547 92.107422 94.191563 90.123047 96.414062 C 88.032839 98.82177 86.312969 101.54661 85.042969 104.45703 C 83.402553 108.18765 81.999219 112.05097 80.808594 115.9668 C 79.432761 120.46472 77.740756 126.73474 75.888672 134.56641 C 74.036589 142.39808 72.580703 148.19179 71.548828 151.76367 L 71.548828 151.87109 C 71.548828 152.02984 71.681094 152.13477 71.839844 152.13477 L 78.824219 151.68555 L 78.876953 151.47266 C 79.194453 149.85871 79.512578 148.45731 79.830078 147.24023 C 80.147578 146.02315 80.491797 144.38352 80.888672 142.47852 C 81.285547 140.57352 81.683203 138.90602 82.080078 137.55664 C 82.476953 136.20727 83.030833 134.59232 83.71875 132.74023 C 84.380208 130.99398 85.28026 129.32737 86.417969 127.8457 C 87.396927 126.54924 88.587058 125.43864 89.962891 124.53906 C 91.523933 123.5601 92.265416 123.34877 92.609375 123.32227 L 92.714844 123.32227 C 93.111719 123.32227 93.588599 123.45339 93.667969 124.51172 C 93.720886 125.19964 93.482292 126.49646 92.953125 128.375 C 90.4925 135.995 89.381901 141.92258 89.646484 145.9707 C 89.884609 149.62195 91.471328 151.36685 94.408203 151.18164 C 97.741953 150.96998 101.34073 147.26646 105.33594 139.9375 C 105.38886 139.80519 105.52094 139.72545 105.67969 139.75195 C 105.812 139.80487 105.89173 139.93695 105.86523 140.0957 C 105.83873 140.91591 105.86507 141.71016 105.91797 142.50391 C 106.15609 146.47266 107.61127 148.48438 110.17773 148.48438 L 110.49609 148.48438 C 112.05713 148.37855 113.74984 147.45133 115.49609 145.70508 C 117.2688 143.93237 118.80333 141.94888 120.04688 139.7793 C 120.25853 139.40888 120.46997 139.03839 120.68164 138.66797 C 119.6233 142.61026 119.09358 144.85914 119.14648 145.49414 L 119.17383 145.75781 L 126.44922 145.28125 L 126.50195 145.07031 C 126.55487 144.85864 126.79419 143.48234 127.00586 142.37109 C 127.2969 140.78359 127.5868 139.25012 127.9043 137.79492 C 128.19534 136.39262 128.64661 134.59235 129.17578 132.44922 C 129.65203 130.51776 130.25916 128.61273 131 126.78711 C 131.71437 125.12023 132.48234 123.48008 133.35547 121.89258 C 134.06984 120.46383 135.07589 119.19399 136.29297 118.16211 C 137.27193 117.3419 138.46154 116.84022 139.70508 116.73438 C 140.78987 116.65501 141.32015 117.02512 141.37305 117.95117 C 141.39951 118.40096 141.34625 118.87638 141.1875 119.32617 C 138.33 129.53909 137.00709 136.39281 137.21875 139.72656 C 137.43042 143.21906 139.0182 144.88443 141.95508 144.69922 C 143.51612 144.59339 145.20883 143.66813 146.95508 141.92188 C 148.72779 140.14917 150.28966 138.16567 151.5332 135.99609 C 151.95654 135.30817 152.3794 134.54091 152.80273 133.7207 C 152.85565 133.58839 152.98773 133.50866 153.14648 133.53516 C 153.27879 133.58808 153.35853 133.72016 153.33203 133.87891 C 153.30553 134.30225 153.30553 134.69901 153.33203 135.04297 C 153.43786 137.21255 153.91398 138.85359 154.78711 139.96484 C 155.66023 141.07609 156.79817 141.60479 158.12109 141.52539 C 159.23234 141.47247 160.34206 141.23477 161.40039 140.83789 C 162.32643 140.46748 163.54443 139.46073 165.10547 137.82031 C 166.29609 136.4974 167.40669 135.09495 168.41211 133.61328 C 168.46503 133.53395 168.5973 133.48131 168.70312 133.50781 C 168.83544 133.56072 168.94157 133.69281 168.88867 133.85156 L 166.9043 141.10156 C 166.9043 141.18093 166.82458 141.26061 166.71875 141.28711 C 162.75 142.3719 156.90247 142.55766 153.46289 145.09766 L 153.41016 145.12305 C 152.72225 145.4141 151.74331 146.49956 151.13477 147.47852 C 150.52623 148.45747 149.78583 149.75273 149.86523 150.94336 C 149.99752 152.92773 150.60565 154.5688 152.53711 155.57422 C 154.04523 156.34151 155.31552 156.5 157.27344 156.5 C 157.6174 156.5 157.93534 156.50111 158.2793 156.47461 C 160.73992 156.2894 163.14719 155.49497 165.21094 154.11914 C 167.43344 152.71685 169.31255 150.83862 170.71484 148.64258 C 171.90547 146.71112 172.83073 144.62076 173.49219 142.45117 C 173.51865 142.3718 173.57294 142.29212 173.65234 142.26562 C 173.89046 142.18625 174.12817 142.08045 174.33984 141.97461 C 178.97004 139.72565 182.56833 136.15349 186.82812 133.26953 C 189.57979 131.39099 187.80685 135.8096 187.46289 136.36523 C 185.31976 139.72543 182.19784 142.39834 179.76367 145.54688 C 173.38722 153.88125 164.52367 160.81287 153.9668 162.69141 C 111.7393 170.23203 71.787058 160.91942 32.681641 180.33984 C 32.522895 180.36629 32.444243 180.4975 32.470703 180.65625 C 32.497161 180.81501 32.628359 180.89564 32.787109 180.86914 C 47.974192 180.41935 64.352656 189.97078 71.972656 202.98828 C 71.999114 203.06767 72.051489 203.09264 72.130859 203.11914 C 72.289609 203.17206 72.421689 203.0943 72.474609 202.93555 C 80.253359 175.7893 117.16359 172.40237 142.24609 170.12695 C 150.81859 169.3332 159.8669 167.9298 167.03711 162.79688 C 172.06419 159.22501 176.66742 154.225 180.79492 149.85938 C 183.75825 146.71082 185.71586 144.25065 188.25586 140.94336 C 189.60523 139.19711 190.29338 138.40235 191.58984 136.41797 C 192.64817 134.80401 193.52107 133.05893 194.20898 131.25977 C 194.60586 130.17498 194.84533 129.06349 194.95117 127.92578 L 194.95117 127.87305 L 194.89844 127.55469 C 194.42219 120.33157 184.18141 131.70922 182.83203 133.05859 C 180.42432 135.41339 177.77849 137.47748 174.89453 139.19727 C 174.81516 139.27667 174.71026 139.2765 174.63086 139.25 C 174.49857 139.19709 174.44515 139.03854 174.49805 138.90625 C 174.78909 137.82145 175.13243 136.47245 175.5293 134.83203 C 176.05847 132.66245 176.40375 131.23247 176.5625 130.65039 C 176.72125 130.0683 177.14323 128.42816 177.80469 125.75586 C 178.46615 123.08357 179.31294 120.06687 180.31836 116.8125 C 181.53544 112.97604 182.83333 110.51626 184.15625 109.48438 L 184.20898 109.43164 C 184.34123 109.37873 184.42009 109.22018 184.36719 109.08789 C 184.31428 108.95554 184.15573 108.87483 184.02344 108.92773 L 181.08594 109.11328 C 179.78948 109.21912 178.52088 109.45771 177.27734 109.82812 C 176.77463 109.98687 176.35089 110.27695 175.98047 110.67383 C 175.61006 111.0707 175.29175 111.38883 175.08008 111.62695 C 174.76258 112.07675 174.49771 112.55287 174.3125 113.08203 C 174.04791 113.74349 173.83631 114.27217 173.73047 114.64258 C 173.62464 115.013 173.41409 115.67622 173.12305 116.68164 C 172.83201 117.68705 172.61969 118.42787 172.46094 118.95703 C 171.19094 122.95224 169.41888 126.76122 167.16992 130.30664 C 164.86804 134.03726 162.88331 135.96839 161.32227 136.07422 L 161.26953 136.07422 C 160.63453 136.07422 160.26403 135.30783 160.1582 133.82617 C 159.97299 130.59825 160.68665 126.54978 162.35352 121.73438 C 164.0204 116.91896 165.74096 113.50568 167.51367 111.57422 C 167.83117 111.17734 167.98939 110.8594 167.96289 110.56836 L 167.96289 110.51562 C 167.93643 110.22458 167.67297 109.98717 167.35547 110.01367 C 164.84192 110.17242 162.88383 110.62227 161.45508 111.41602 C 160.02633 112.20977 158.67695 113.82365 157.48633 116.25781 C 156.45445 118.32156 155.5544 120.99278 154.78711 124.2207 C 154.78711 124.2471 154.75977 124.24694 154.75977 124.27344 C 154.62748 124.53802 154.46841 124.85597 154.2832 125.2793 C 153.72757 126.44347 153.09346 127.81893 152.32617 129.35352 C 151.69117 130.67643 150.97627 131.97326 150.20898 133.2168 C 149.4946 134.3016 148.67516 135.30744 147.72266 136.20703 C 146.50558 137.37119 145.81768 137.63571 145.44727 137.66211 L 145.36719 137.66211 C 144.97032 137.66211 144.44073 137.50367 144.36133 136.1543 C 144.22904 134.2493 145.02453 130.35882 146.69141 124.56445 C 147.48516 121.8657 147.93393 120.12028 148.11914 119.2207 C 148.30435 118.32111 148.35759 117.42106 148.30469 116.52148 C 148.14594 113.69043 146.61034 112.34213 143.7793 112.52734 C 140.23388 112.739 136.79557 114.58972 133.48828 118.0293 C 133.43536 118.0822 133.3294 118.13587 133.25 118.10938 C 133.09128 118.08291 132.98522 117.94977 133.01172 117.79102 C 133.14403 117.15602 133.19727 116.49633 133.19727 115.86133 C 133.17081 115.22633 132.8271 114.61651 132.27148 114.24609 C 131.71585 113.87567 130.62995 113.77112 128.91016 113.87695 L 125.97266 114.06055 C 125.91975 114.06055 125.86735 114.08678 125.81445 114.11328 C 125.68215 114.19265 125.68232 114.37855 125.76172 114.48438 C 125.92044 114.80188 126 115.14627 126 115.49023 C 126.13229 117.52752 125.52302 121.20461 124.22656 126.44336 L 123.88281 127.07812 C 123.72406 127.23687 123.48745 127.66075 122.87891 128.9043 C 122.32328 130.06846 121.66182 131.44375 120.89453 133.03125 C 120.12724 134.61875 119.43773 135.91539 118.80273 136.94727 C 118.11482 138.03206 117.29625 139.01165 116.34375 139.88477 C 115.10021 141.02248 114.41144 141.286 114.04102 141.3125 L 113.96094 141.3125 C 113.72281 141.3125 113.00924 141.31409 112.87695 139.43555 C 112.77111 138.0068 113.03599 136.10195 113.64453 133.7207 C 114.25307 131.33945 114.83518 129.43354 115.33789 128.03125 C 115.8406 126.68188 116.6075 124.67124 117.71875 121.73438 C 118.77709 119.00917 119.64909 117.31664 120.31055 116.68164 C 120.36345 116.62872 120.39062 116.54815 120.39062 116.46875 C 120.39063 116.31 120.25836 116.20508 120.09961 116.20508 L 115.86719 116.41602 C 113.75052 116.54831 111.95042 118.26907 110.46875 121.52344 C 109.22521 124.32802 108.19326 127.23784 107.37305 130.20117 C 107.34665 130.25407 107.34681 130.28108 107.32031 130.33398 C 103.74843 139.32981 100.60002 143.98578 97.927734 144.14453 L 97.847656 144.14453 C 97.635989 144.14453 97.002317 144.14414 96.896484 142.55664 C 96.817109 141.31309 97.002266 139.59429 97.478516 137.45117 C 97.637266 136.6045 97.902135 135.51893 98.246094 134.27539 C 98.590052 133.03185 98.854739 132.05334 99.066406 131.3125 C 99.278073 130.59813 99.541875 129.64552 99.859375 128.50781 C 100.20334 127.3701 100.49519 126.33797 100.75977 125.46484 C 101.05077 124.51234 101.15557 123.50737 101.07617 122.50195 C 100.89096 119.77674 99.383776 118.48081 96.552734 118.66602 C 95.044609 118.79831 93.588542 119.1949 92.265625 119.88281 C 91.366042 120.33261 90.520313 120.88755 89.726562 121.49609 C 89.620729 121.60193 89.433959 121.60193 89.328125 121.49609 C 89.222292 121.39026 89.222292 121.20544 89.328125 121.09961 C 93.905417 114.45857 97.212891 108.5049 99.197266 103.39844 C 100.28206 100.51449 100.78552 98.211979 100.67969 96.492188 C 100.49448 93.925728 99.170677 92.683047 96.683594 92.841797 z M 96.974609 95.169922 L 97.027344 95.197266 C 97.159636 95.197266 97.610078 95.197161 97.689453 96.361328 C 97.742369 97.313828 97.239089 99.455676 96.154297 102.68359 C 94.408047 107.41963 91.102344 113.47982 86.339844 120.75586 C 86.260469 120.86169 86.127317 120.88783 86.021484 120.86133 C 85.889195 120.80842 85.783017 120.67633 85.835938 120.51758 C 87.608647 114.37925 89.460234 108.79518 91.365234 103.90039 C 94.116901 96.80956 95.942734 95.222842 96.974609 95.169922 z M 64.589844 99.033203 C 58.054636 99.430078 53.769766 102.97498 51.150391 108.82227 C 46.334974 119.59081 55.330834 126.7607 60.78125 134.14258 C 64.90875 139.72528 64.723464 144.69932 59.669922 149.48828 C 54.113672 154.75349 47.656849 147.50489 46.916016 142.39844 C 46.254557 137.71531 46.308411 134.46094 42.392578 140.41406 C 38.767786 145.94385 42.498125 153.1406 49.5625 153.43164 C 58.796458 153.64331 68.45323 151.49974 71.257812 140.51953 C 73.083438 133.4287 68.533386 128.26982 64.511719 123.08398 C 64.485259 123.05748 64.458984 123.03145 64.458984 122.97852 C 64.300234 122.31706 59.93388 118.29523 58.716797 116.78711 C 58.716797 116.76061 58.690523 116.76077 58.664062 116.73438 C 58.08198 116.31105 57.472682 114.16718 57.181641 112.97656 C 57.049349 112.47385 57.050418 111.97145 57.15625 111.46875 C 58.214584 106.07125 58.796589 102.1288 65.966797 103.29297 C 71.126172 104.13964 68.452344 111.70644 71.230469 112.44727 L 71.285156 112.44727 C 72.952031 112.60602 76.205391 108.6111 76.681641 107.26172 C 78.533725 102.02297 67.844219 98.821537 64.589844 99.033203 z M 120.04688 104.48438 C 119.27957 104.53727 118.35359 105.01182 117.48047 105.83203 C 116.3163 106.91682 116.36982 108.47789 116.74023 109.50977 C 117.08419 110.38289 117.69294 110.96573 118.38086 110.99219 C 120.07419 110.91279 122.19065 110.27721 122.69336 107.76367 C 122.93148 106.62596 122.24365 105.32939 121.82031 104.95898 C 121.39698 104.58856 120.81417 104.43146 120.04688 104.48438 z M 165.37109 144.69922 C 165.42401 144.67272 165.4764 144.67272 165.5293 144.69922 C 165.66155 144.75214 165.7404 144.91263 165.6875 145.04492 C 163.72958 150.60117 161.16311 153.50993 158.04102 153.74805 C 157.24727 153.82743 156.42797 153.5906 155.79297 153.08789 C 155.10506 152.53227 154.31071 151.76357 154.25781 150.94336 C 154.20489 149.77919 154.2569 148.85356 154.52148 148.27148 C 154.54788 148.24498 154.54772 148.21986 154.57422 148.19336 C 156.1088 146.52649 159.125 146.04852 161.10938 145.57227 C 162.51167 145.22831 163.94234 144.99026 165.37109 144.69922 z "
       d="m 96.646484,92.285156 c -2.518111,0.169761 -4.883277,1.454897 -6.939453,3.757813 a 0.55785303,0.55785303 0 0 0 -0.0059,0.0059 c -2.127486,2.450648 -3.877134,5.222902 -5.169922,8.185552 -1.64991,3.75249 -3.059698,7.63627 -4.255859,11.57031 -1.380744,4.51414 -3.075646,10.79286 -4.929688,18.63281 -1.851195,7.82792 -3.305966,13.62011 -4.332031,17.17188 a 0.55785303,0.55785303 0 0 0 -0.02344,0.15429 v 0.10742 c 0,0.46858 0.445066,0.82227 0.84961,0.82227 a 0.55785303,0.55785303 0 0 0 0.03516,-0.002 l 6.984375,-0.44922 a 0.55785303,0.55785303 0 0 0 0.505859,-0.42188 l 0.05273,-0.21289 a 0.55785303,0.55785303 0 0 0 0.0059,-0.0273 c 0.315683,-1.60472 0.63124,-2.99528 0.945313,-4.19922 0.32353,-1.2402 0.669431,-2.88358 1.066406,-4.78906 0.394957,-1.8958 0.789453,-3.55015 1.179687,-4.87696 0.390894,-1.32903 0.940725,-2.93484 1.625,-4.77734 l 0.002,-0.004 c 0.643583,-1.69795 1.518821,-3.31507 2.61914,-4.74804 a 0.55785303,0.55785303 0 0 0 0.002,-0.004 c 0.938614,-1.24303 2.078244,-2.3056 3.398438,-3.16992 1.516379,-0.95071 2.20254,-1.11587 2.384765,-1.13086 h 0.06836 c 0.137009,0 0.177404,0.0125 0.216797,0.0488 0.03939,0.0364 0.146104,0.17524 0.179687,0.62304 a 0.55785303,0.55785303 0 0 0 0,0.002 c 0.03893,0.50611 -0.173622,1.81288 -0.695312,3.66601 -5.37e-4,0.002 5.37e-4,0.002 0,0.004 -2.466474,7.64293 -3.599423,13.60247 -3.326172,17.7832 0.123923,1.90016 0.598212,3.37977 1.513672,4.38281 0.915459,1.00305 2.255295,1.44759 3.839843,1.34766 1.859522,-0.11806 3.708487,-1.19524 5.580081,-3.12109 1.71414,-1.76385 3.47586,-4.35062 5.30468,-7.59375 0.006,0.50765 1e-4,1.02085 0.0332,1.51758 0.12313,2.04449 0.55306,3.63801 1.35937,4.76562 0.80688,1.1284 2.02806,1.73633 3.45703,1.73633 h 0.31836 a 0.55785303,0.55785303 0 0 0 0.0371,-0.002 c 1.75326,-0.11887 3.55354,-1.13753 5.35742,-2.94141 1.26985,-1.26985 2.3703,-2.68289 3.38282,-4.1582 -0.0899,0.3672 -0.25012,0.94734 -0.32032,1.25586 -0.26121,1.148 -0.40704,1.81845 -0.36328,2.34375 a 0.55785303,0.55785303 0 0 0 0.002,0.01 l 0.0273,0.26367 a 0.55785303,0.55785303 0 0 0 0.5918,0.5 l 7.27539,-0.47656 a 0.55785303,0.55785303 0 0 0 0.5039,-0.42187 l 0.0527,-0.21094 c 0.0475,-0.18987 0.10623,-0.53698 0.19922,-1.04688 0.093,-0.5099 0.20735,-1.13159 0.3125,-1.68359 a 0.55785303,0.55785303 0 0 0 0,-0.004 c 0.29068,-1.58554 0.57935,-3.11209 0.89453,-4.55664 a 0.55785303,0.55785303 0 0 0 0.002,-0.006 c 0.28703,-1.38297 0.73619,-3.18197 1.26563,-5.32617 0.46944,-1.90384 1.06872,-3.78037 1.79687,-5.57617 l 0.002,-0.004 c 7.7e-4,-0.002 0.001,-0.004 0.002,-0.006 0.70835,-1.65225 1.46635,-3.27067 2.32617,-4.83398 a 0.55785303,0.55785303 0 0 0 0.01,-0.0195 c 0.67981,-1.35963 1.64022,-2.57073 2.80078,-3.55469 0.89311,-0.74714 1.97272,-1.20089 3.0957,-1.29687 0.46889,-0.0335 0.73318,0.0429 0.84961,0.12695 0.11695,0.0844 0.19616,0.20315 0.2168,0.56445 a 0.55785303,0.55785303 0 0 0 0,0.002 c 0.0225,0.38298 -0.0236,0.78586 -0.1543,1.15624 a 0.55785303,0.55785303 0 0 0 -0.0117,0.0352 c -2.86291,10.23226 -4.21232,17.05727 -3.98828,20.58594 0.11084,1.82395 0.58171,3.25302 1.49805,4.21484 0.91669,0.96219 2.25052,1.37891 3.83007,1.2793 a 0.55785303,0.55785303 0 0 0 0.002,0 c 1.75279,-0.11883 3.55339,-1.13542 5.35742,-2.93945 1.79964,-1.79964 3.38891,-3.81647 4.6582,-6.02735 l 0.004,-0.006 c 0.25657,-0.41718 0.50958,-0.90493 0.76367,-1.36914 0.003,0.0488 -0.004,0.10873 0,0.15625 0.10913,2.23723 0.59518,3.99472 1.57227,5.23828 0.96461,1.2277 2.31449,1.86148 3.80273,1.77344 1.17226,-0.056 2.33611,-0.3067 3.44531,-0.72265 a 0.55785303,0.55785303 0 0 0 0.0117,-0.004 c 1.09304,-0.43721 2.31999,-1.48757 3.90235,-3.15039 a 0.55785303,0.55785303 0 0 0 0.01,-0.0117 c 0.88513,-0.98348 1.67203,-2.05918 2.46094,-3.13086 l -1.56641,5.71875 c -3.84047,1.01631 -9.61454,1.19083 -13.24609,3.84766 -0.47474,0.20817 -0.90281,0.57947 -1.33008,1.03125 -0.4354,0.46037 -0.85146,0.99856 -1.17773,1.52343 -0.61791,0.99402 -1.44807,2.34974 -1.35157,3.79688 0.13848,2.07721 0.86128,3.98983 2.97071,5.08789 a 0.55785303,0.55785303 0 0 0 0.004,0.004 c 1.59328,0.81061 3.00222,0.98632 4.99024,0.98632 0.34212,0 0.6763,0.001 1.04687,-0.0273 2.55048,-0.19197 5.04665,-1.01552 7.19336,-2.44531 0.002,-0.001 0.004,-9.2e-4 0.006,-0.002 2.28738,-1.4457 4.22223,-3.3796 5.66602,-5.64062 a 0.55785303,0.55785303 0 0 0 0.004,-0.008 c 1.19534,-1.9391 2.12095,-4.0349 2.79297,-6.20508 0.213,-0.0799 0.42545,-0.16682 0.60742,-0.25781 4.73369,-2.30089 8.34921,-5.89764 12.55078,-8.74219 a 0.55785303,0.55785303 0 0 0 0.002,0 c 0.29882,-0.20401 0.50961,-0.29926 0.63086,-0.33594 0.009,0.0971 0.008,0.24134 -0.0195,0.42578 -0.0613,0.40443 -0.21771,0.92886 -0.38086,1.36914 -0.16212,0.43747 -0.35609,0.8327 -0.38282,0.87696 -2.08317,3.26516 -5.18665,5.92915 -7.66796,9.13867 a 0.55785303,0.55785303 0 0 0 -0.002,0.002 c -6.31556,8.25479 -15.07429,15.08904 -25.45117,16.93555 -42.08933,7.51594 -82.130954,-1.82207 -121.435546,17.69726 l 0.15625,-0.0508 c -0.212138,0.0353 -0.428438,0.16636 -0.550782,0.35547 -0.122343,0.18911 -0.151203,0.41115 -0.11914,0.60352 0.03529,0.21174 0.165415,0.42743 0.353516,0.55078 0.1881,0.12335 0.410856,0.15358 0.605468,0.12109 l -0.07617,0.006 c 14.941657,-0.44252 31.185399,9.02433 38.689454,21.84375 l -0.04883,-0.10547 c 0.04259,0.12779 0.145111,0.27547 0.25586,0.35742 0.110749,0.082 0.201214,0.10871 0.255859,0.12696 0.201164,0.0671 0.454795,0.0579 0.65625,-0.0527 0.201455,-0.11065 0.33073,-0.29884 0.392578,-0.48437 a 0.55785303,0.55785303 0 0 0 0.0078,-0.0215 c 3.826712,-13.35444 14.794849,-20.86385 28.039061,-25.35742 13.24421,-4.49356 28.70513,-5.91309 41.2461,-7.05078 8.59585,-0.79591 17.75118,-2.19679 25.0625,-7.42969 l 0.002,-0.002 c 5.0955,-3.62099 9.71677,-8.64688 13.83984,-13.00781 2.97798,-3.16413 4.95403,-5.6471 7.4961,-8.95703 l 0.002,-0.002 c 1.3417,-1.73623 2.05015,-2.55782 3.35742,-4.55859 v -0.002 c 1.08189,-1.65014 1.97287,-3.4304 2.67383,-5.26368 a 0.55785303,0.55785303 0 0 0 0.002,-0.008 c 0.41425,-1.13225 0.66352,-2.29299 0.77344,-3.47461 a 0.55785303,0.55785303 0 0 0 0.004,-0.0508 v -0.0527 a 0.55785303,0.55785303 0 0 0 -0.008,-0.0918 l -0.0527,-0.31836 0.006,0.0547 c -0.0642,-0.97316 -0.29024,-1.70762 -0.73633,-2.2207 -0.44609,-0.51309 -1.10967,-0.72017 -1.75586,-0.67579 -1.29238,0.0888 -2.67979,0.94499 -4.10742,2.02539 -2.85527,2.1608 -5.79867,5.39829 -6.41797,6.01758 -2.19726,2.14844 -4.61401,4.01863 -7.20898,5.63282 0.25423,-0.96917 0.51938,-1.99327 0.84375,-3.33399 l -0.002,0.002 c 0.52931,-2.17013 0.8795,-3.61154 1.03125,-4.16796 0.16271,-0.59662 0.58218,-2.23192 1.24414,-4.90626 0.65801,-2.65831 1.50172,-5.666 2.50391,-8.91015 l 0.002,-0.004 c 1.20288,-3.79013 2.52547,-6.17681 3.64844,-7.05273 a 0.55785303,0.55785303 0 0 0 0.0508,-0.0449 l 0.0527,-0.0527 -0.1875,0.12305 c 0.41805,-0.16726 0.64965,-0.61595 0.46875,-1.06836 -0.16648,-0.41642 -0.61179,-0.65328 -1.06836,-0.4707 l 0.17187,-0.0391 -2.9375,0.18555 a 0.55785303,0.55785303 0 0 0 -0.01,0 c -1.33481,0.10897 -2.64363,0.355 -3.92383,0.73633 a 0.55785303,0.55785303 0 0 0 -0.008,0.004 c -0.60295,0.1904 -1.11442,0.5432 -1.53711,0.99609 -0.36311,0.38904 -0.67595,0.70161 -0.90821,0.96289 a 0.55785303,0.55785303 0 0 0 -0.0391,0.0488 c -0.33884,0.48002 -0.63054,1.00346 -0.83594,1.58789 -8e-4,0.002 -0.003,0.004 -0.004,0.006 -0.25922,0.64782 -0.47231,1.17361 -0.5918,1.59179 -0.10046,0.35162 -0.31267,1.02561 -0.60547,2.03711 -0.29124,1.00611 -0.5052,1.74651 -0.66211,2.26954 -1.2554,3.94632 -3.00529,7.70916 -5.22656,11.21093 a 0.55785303,0.55785303 0 0 0 -0.004,0.006 c -1.1359,1.84095 -2.18802,3.22537 -3.11719,4.13867 -0.92648,0.91068 -1.71943,1.32273 -2.2871,1.36328 h -0.0215 c -0.0931,0 -0.12379,0.009 -0.25391,-0.25585 -0.13011,-0.26469 -0.25067,-0.77115 -0.30078,-1.47266 -0.17748,-3.1184 0.51595,-7.10424 2.16602,-11.87109 1.65472,-4.7803 3.37005,-8.14211 5.04297,-9.96485 a 0.55785303,0.55785303 0 0 0 0.0254,-0.0293 c 0.35181,-0.43977 0.61637,-0.87706 0.56836,-1.4043 l 0.004,0.0508 v -0.0527 a 0.55785303,0.55785303 0 0 0 -0.004,-0.0508 c -0.0541,-0.59479 -0.58888,-1.05474 -1.20508,-1.00586 -2.55737,0.16227 -4.59101,0.61437 -6.12891,1.46875 -1.5775,0.8764 -2.97518,2.58776 -4.19531,5.08008 -1.05693,2.11385 -1.96379,4.81499 -2.73633,8.0586 l 0.01,-0.043 c -0.13224,0.26448 -0.29913,0.59638 -0.49024,1.0332 -0.55638,1.16614 -1.18397,2.52809 -1.94336,4.04688 a 0.55785303,0.55785303 0 0 0 -0.004,0.008 c -0.62384,1.29967 -1.32722,2.57658 -2.08203,3.80078 -0.69353,1.05295 -1.485,2.02229 -2.40235,2.88867 a 0.55785303,0.55785303 0 0 0 -0.002,0.004 c -1.16766,1.11689 -1.76753,1.28666 -1.92578,1.29883 h -0.0449 c -0.12421,0 -0.14667,0.003 -0.21094,-0.0664 -0.0643,-0.0697 -0.20278,-0.31265 -0.23828,-0.91602 a 0.55785303,0.55785303 0 0 0 0,-0.006 c -0.11792,-1.69804 0.64789,-5.61905 2.30859,-11.39257 v -0.004 c 0.79506,-2.70348 1.24723,-4.45109 1.43946,-5.38477 0.19563,-0.95023 0.25059,-1.90114 0.19531,-2.84375 -0.0847,-1.51096 -0.55246,-2.72517 -1.44922,-3.51562 -0.89592,-0.78971 -2.15784,-1.10183 -3.66602,-1.00391 h -0.004 c -3.51831,0.21117 -6.89982,2.01406 -10.11133,5.17578 0.0516,-0.43161 0.125,-0.86606 0.125,-1.28515 a 0.55785303,0.55785303 0 0 0 -0.002,-0.0234 c -0.0342,-0.82092 -0.47145,-1.58838 -1.17383,-2.05664 -0.79442,-0.52961 -1.94844,-0.56903 -3.70508,-0.46094 l -2.90234,0.18164 c -0.23726,0 -0.35521,0.0867 -0.40821,0.11328 a 0.55785303,0.55785303 0 0 0 -0.0371,0.0195 c -0.23098,0.13857 -0.35316,0.39082 -0.37304,0.60156 -0.0199,0.21074 0.0284,0.40385 0.16211,0.58203 l -0.0527,-0.084 c 0.11992,0.23988 0.17774,0.49791 0.17774,0.75585 a 0.55785303,0.55785303 0 0 0 0.002,0.0371 c 0.12174,1.87487 -0.46481,5.53934 -1.74414,10.72071 l -0.30664,0.56445 0.0957,-0.12891 c -0.31384,0.31385 -0.49969,0.72474 -1.11133,1.97461 a 0.55785303,0.55785303 0 0 0 -0.002,0.006 c -0.55506,1.16297 -1.2154,2.53806 -1.98242,4.125 -0.7621,1.57677 -1.44431,2.85749 -2.06446,3.86524 -0.66128,1.04166 -1.44641,1.9797 -2.36132,2.81836 -1.1937,1.0921 -1.7984,1.26848 -1.95899,1.28125 h -0.0469 c -0.12031,0 -0.0913,0.0316 -0.17969,-0.0605 -0.0884,-0.0922 -0.28645,-0.42772 -0.34766,-1.29688 a 0.55785303,0.55785303 0 0 0 0,-0.002 c -0.0981,-1.32394 0.15147,-3.18542 0.75196,-5.53515 0.60426,-2.36452 1.18154,-4.25339 1.67578,-5.63282 l 0.002,-0.008 c 0.50092,-1.34444 1.26599,-3.35229 2.375,-6.2832 l 0.002,-0.004 c 1.04834,-2.69859 1.97641,-4.38625 2.45704,-4.84766 a 0.55785303,0.55785303 0 0 0 0.008,-0.008 c 0.18551,-0.18558 0.24414,-0.40077 0.24414,-0.60742 3e-5,-0.4686 -0.44509,-0.82227 -0.84961,-0.82227 a 0.55785303,0.55785303 0 0 0 -0.0273,0.002 l -4.23243,0.21094 a 0.55785303,0.55785303 0 0 0 -0.008,0 c -2.39757,0.14984 -4.34955,2.09164 -5.87109,5.43359 a 0.55785303,0.55785303 0 0 0 -0.002,0.004 c -1.25155,2.82265 -2.28912,5.75052 -3.11523,8.73046 -0.004,0.0127 -0.0249,0.0634 -0.0215,0.0566 a 0.55785303,0.55785303 0 0 0 -0.0195,0.0449 c -1.77737,4.47634 -3.44844,7.86117 -4.97656,10.11132 -1.52456,2.24491 -2.897756,3.28031 -3.923826,3.34571 h -0.05469 c -0.105491,0 -0.06302,0.025 -0.121094,-0.0332 -0.05796,-0.0581 -0.225097,-0.31413 -0.273437,-1.03125 v -0.002 c -0.07352,-1.15586 0.101338,-2.83688 0.570313,-4.94726 a 0.55785303,0.55785303 0 0 0 0.0039,-0.0176 c 0.153955,-0.8211 0.414521,-1.8968 0.755859,-3.13086 0.343708,-1.24264 0.608791,-2.21942 0.818359,-2.95313 l 0.002,-0.006 c 0.213028,-0.71922 0.474184,-1.66655 0.789064,-2.79492 l 0.004,-0.0117 c 0.34396,-1.1382 0.63529,-2.16929 0.89649,-3.03125 0.31153,-1.01969 0.4237,-2.09115 0.33984,-3.16211 -0.0991,-1.45876 -0.57042,-2.63535 -1.46484,-3.39648 -0.894425,-0.76113 -2.145821,-1.05754 -3.652345,-0.95898 a 0.55785303,0.55785303 0 0 0 -0.01172,0.002 c -1.570743,0.13778 -3.09667,0.55121 -4.488281,1.27344 -0.0013,6.5e-4 -0.0026,0.001 -0.0039,0.002 -0.0013,6.7e-4 -0.0026,0.001 -0.0039,0.002 -0.563361,0.28215 -1.0598,0.65575 -1.578124,1.00195 4.215905,-6.23492 7.388612,-11.90554 9.287109,-16.79101 a 0.55785303,0.55785303 0 0 0 0.002,-0.004 c 1.09922,-2.92229 1.63194,-5.280168 1.51758,-7.138669 a 0.55785303,0.55785303 0 0 0 0,-0.0059 c -0.099,-1.371945 -0.51451,-2.481031 -1.314455,-3.216797 -0.799947,-0.735766 -1.93128,-1.034888 -3.273437,-0.949219 a 0.55785303,0.55785303 0 0 0 -0.002,0 z m 0.324219,3.457032 a 0.55785303,0.55785303 0 0 0 0.0078,0.002 c 0.0096,0.01167 0.119942,0.156968 0.154296,0.652343 9.8e-5,0.0014 -9.6e-5,5.43e-4 0,0.002 0.03806,0.71372 -0.431612,2.905074 -1.507812,6.107422 -1.555801,4.2142 -4.560648,9.69004 -8.591797,16.02539 1.569082,-5.25537 3.186227,-10.14875 4.851563,-14.42773 a 0.55785303,0.55785303 0 0 0 0,-0.002 c 1.365856,-3.5197 2.499905,-5.65377 3.382812,-6.878904 0.859618,-1.192816 1.443424,-1.455038 1.703125,-1.480468 z m -32.417969,2.734374 c -6.718871,0.409403 -11.234868,4.140718 -13.912109,10.117188 -2.479381,5.54455 -1.388454,10.28304 0.992187,14.43555 2.380642,4.1525 6.009856,7.80292 8.699219,11.44531 2.014299,2.72446 2.930659,5.23147 2.779297,7.60351 -0.151362,2.37205 -1.364964,4.67537 -3.824219,7.00586 -1.303527,1.23525 -2.590776,1.69467 -3.841797,1.67774 -1.25102,-0.0169 -2.493897,-0.53273 -3.625,-1.37695 -2.261652,-1.68805 -4.008218,-4.70225 -4.351562,-7.06446 v -0.002 c -0.163813,-1.16008 -0.283913,-2.2402 -0.4375,-3.13672 -0.153681,-0.89707 -0.288707,-1.60688 -0.732422,-2.12695 -0.221857,-0.26004 -0.603556,-0.45311 -0.978516,-0.41992 -0.374959,0.0332 -0.692113,0.21964 -1.017578,0.48828 -0.650929,0.53728 -1.385494,1.47709 -2.376953,2.98437 -1.921315,2.93106 -1.901212,6.34861 -0.447265,9.04492 1.453947,2.69632 4.343458,4.6828 8.060546,4.83594 a 0.55785303,0.55785303 0 0 0 0.0098,0.002 c 4.664561,0.10693 9.470596,-0.37291 13.513672,-2.31445 4.043076,-1.94154 7.298202,-5.38717 8.736328,-11.01758 0.948855,-3.6854 0.229399,-6.91592 -1.222656,-9.82031 -1.452055,-2.90438 -3.61975,-5.5125 -5.623047,-8.0957 a 0.55785303,0.55785303 0 0 0 -0.03125,-0.0352 c -0.07178,-0.17445 -0.148374,-0.31398 -0.265625,-0.46484 -0.152691,-0.19646 -0.347232,-0.42094 -0.578125,-0.67383 -0.461787,-0.50579 -1.064056,-1.12 -1.697266,-1.75977 -1.257797,-1.27082 -2.645299,-2.65378 -3.208984,-3.34765 -0.0015,-0.002 -4.4e-4,-0.006 -0.002,-0.008 -0.06145,-0.0881 -0.116942,-0.12547 -0.148438,-0.14648 a 0.55785303,0.55785303 0 0 0 -0.0293,-0.0234 c -0.0018,-0.001 -0.142127,-0.15837 -0.267579,-0.40234 -0.125451,-0.24398 -0.259297,-0.56983 -0.384765,-0.92383 -0.250937,-0.70801 -0.47465,-1.53017 -0.617188,-2.11328 a 0.55785303,0.55785303 0 0 0 -0.002,-0.01 c -0.108827,-0.41354 -0.110085,-0.81987 -0.01953,-1.25 a 0.55785303,0.55785303 0 0 0 0.002,-0.008 c 0.530386,-2.70497 0.965246,-4.96934 2.007813,-6.31445 0.521283,-0.67256 1.175491,-1.14074 2.148437,-1.40234 0.972946,-0.26161 2.275364,-0.2985 4.017578,-0.0156 1.151229,0.18892 1.7735,0.69778 2.222656,1.42578 0.449157,0.728 0.681909,1.70687 0.839844,2.72656 0.157935,1.01969 0.24118,2.06662 0.482422,2.97071 0.120621,0.45204 0.281955,0.87403 0.544922,1.23632 0.262967,0.3623 0.646903,0.65728 1.119141,0.78321 a 0.55785303,0.55785303 0 0 0 0.144531,0.0195 h 0.05469 l -0.05273,-0.004 c 0.653577,0.0623 1.248197,-0.24057 1.845703,-0.64843 0.597506,-0.40787 1.197983,-0.95661 1.757813,-1.55079 1.119659,-1.18834 2.057795,-2.46778 2.371093,-3.35546 0.525176,-1.4855 0.140891,-2.91193 -0.732422,-4.05079 -0.873312,-1.13885 -2.203301,-2.05321 -3.673828,-2.79101 -2.939532,-1.474838 -6.395021,-2.248143 -8.24414,-2.128908 z m 55.455076,5.451168 c -0.96421,0.0665 -1.9705,0.61583 -2.9082,1.4961 -1.36568,1.27255 -1.30984,3.08926 -0.88477,4.27344 a 0.55785303,0.55785303 0 0 0 0.006,0.0176 c 0.3952,1.00318 1.14902,1.79592 2.13868,1.83399 a 0.55785303,0.55785303 0 0 0 0.0469,0 c 0.90536,-0.0425 1.9469,-0.22734 2.86523,-0.7793 0.91834,-0.55196 1.68965,-1.50096 1.96875,-2.89648 0.1478,-0.71379 0.007,-1.41644 -0.21484,-1.99805 -0.22197,-0.58323 -0.49616,-1.03693 -0.83789,-1.33594 -0.55545,-0.48602 -1.31746,-0.67079 -2.17969,-0.61133 z m 13.55274,13.95313 c 0.0139,0.01 0.0184,-0.052 0,0 z m 20.68164,6.21875 a 0.55785303,0.55785303 0 0 0 -0.0117,0.10742 c -0.007,0.0316 -0.0293,0.0345 -0.0293,0.0664 z m -1.02149,20.49609 -0.0273,0.0137 c -0.004,0.002 -0.007,0.008 -0.0117,0.01 z m 11.72852,0.75977 c -0.91564,2.45884 -1.94274,4.38843 -3.06641,5.66601 -1.20695,1.37229 -2.48389,2.06308 -3.88476,2.16993 a 0.55785303,0.55785303 0 0 0 -0.0117,0.002 c -0.64663,0.0647 -1.32888,-0.13227 -1.84766,-0.54297 -0.65347,-0.52873 -1.29195,-1.25664 -1.32422,-1.74023 -3e-5,-4.5e-4 3e-5,-0.002 0,-0.002 -0.0495,-1.11019 0.0338,-1.95841 0.21094,-2.36914 1.33874,-1.41126 4.2049,-1.94144 6.21484,-2.42383 a 0.55785303,0.55785303 0 0 0 0.002,-0.002 c 1.20196,-0.29482 2.45099,-0.51129 3.70703,-0.75781 z" />
  </g>
  <style
     type="text/css"
     id="style14950">
	.st0{fill:#428BCA;}
	.st1{opacity:0.25;fill:url(#SVGID_1_);enable-background:new    ;}
	.st2{fill:#3674A8;}
	.st3{fill:#E6B35A;}
	.st4{fill:#FFFFFF;}
	.st5{opacity:0.9;fill:#FFFFFF;enable-background:new    ;}
</style>
</svg>
