<?xml version="1.0" encoding="UTF-8" standalone="no"?>
<svg
   xmlns:dc="http://purl.org/dc/elements/1.1/"
   xmlns:cc="http://creativecommons.org/ns#"
   xmlns:rdf="http://www.w3.org/1999/02/22-rdf-syntax-ns#"
   xmlns:svg="http://www.w3.org/2000/svg"
   xmlns="http://www.w3.org/2000/svg"
   xmlns:sodipodi="http://sodipodi.sourceforge.net/DTD/sodipodi-0.dtd"
   xmlns:inkscape="http://www.inkscape.org/namespaces/inkscape"
   version="1.1"
   id="Capa_1"
   x="0px"
   y="0px"
   viewBox="0 0 360 360"
   style="enable-background:new 0 0 360 360;"
   xml:space="preserve"
   sodipodi:docname="tex-svgrepo-com.svg"
   inkscape:version="1.0.1 (c497b03c, 2020-09-10)"><metadata
   id="metadata1087"><rdf:RDF><cc:Work
       rdf:about=""><dc:format>image/svg+xml</dc:format><dc:type
         rdf:resource="http://purl.org/dc/dcmitype/StillImage" /></cc:Work></rdf:RDF></metadata><defs
   id="defs1085" /><sodipodi:namedview
   pagecolor="#ffffff"
   bordercolor="#666666"
   borderopacity="1"
   objecttolerance="10"
   gridtolerance="10"
   guidetolerance="10"
   inkscape:pageopacity="0"
   inkscape:pageshadow="2"
   inkscape:window-width="1216"
   inkscape:window-height="1011"
   id="namedview1083"
   showgrid="false"
   inkscape:zoom="1.8583333"
   inkscape:cx="187.80269"
   inkscape:cy="195.06726"
   inkscape:window-x="1697"
   inkscape:window-y="71"
   inkscape:window-maximized="0"
   inkscape:current-layer="XMLID_943_" />
<g
   id="XMLID_943_">
	<path
   id="XMLID_944_"
   d="M345,124.551h-50V77.834L211.977,0H15v360h280v-52.721h50V124.551z M315,277.279H105V154.551h210V277.279z   "
   style="fill:#ef525b;fill-opacity:1" />
	<polygon
   id="XMLID_947_"
   points="147.586,244.085 159.916,244.085 159.916,191.075 180.347,191.075 180.347,180.185    127.156,180.185 127.156,191.075 147.586,191.075  " />
	<polygon
   id="XMLID_948_"
   points="232.635,233.195 200.686,233.195 200.686,216.545 227.596,216.545 227.596,206.465    200.686,206.465 200.686,191.075 231.825,191.075 231.825,180.185 188.266,180.185 188.266,244.085 232.635,244.085  " />
	<polygon
   id="XMLID_949_"
   points="236.145,244.085 249.645,244.085 264.855,221.225 279.975,244.085 293.385,244.085    271.335,212.585 294.105,180.185 280.695,180.185 264.855,203.945 248.925,180.185 235.425,180.185 258.195,212.585  " />
<path
   style="fill:#ef525b;fill-opacity:1;stroke:#ff3300;stroke-width:0.538117"
   d="m 147.98206,217.3991 v -26.36771 h -10.22421 -10.22422 v -5.38117 -5.38116 h 26.36772 26.36771 v 5.38116 5.38117 h -10.22422 -10.22421 v 26.36771 26.36772 h -5.91928 -5.91929 z"
   id="path1650" /><path
   style="fill:#ef525b;fill-opacity:1;stroke:#ff3300;stroke-width:0.538117"
   d="m 188.34081,212.01794 v -31.74888 h 21.52466 21.52466 v 5.38116 5.38117 h -15.60538 -15.60538 v 7.80269 7.80269 h 13.45292 13.45291 v 4.84305 4.84305 h -13.45291 -13.45292 v 8.60987 8.60986 h 16.1435 16.1435 v 5.11211 5.11211 h -22.06278 -22.06278 z"
   id="path1652" /><path
   style="fill:#ef525b;fill-opacity:1;stroke:#ff3300;stroke-width:0.538117"
   d="m 238.53,241.21076 c 5.70532,-7.8812 19.76596,-28.2355 19.76596,-28.61335 0,-0.24408 -4.96412,-7.50966 -11.03139,-16.14573 -6.06726,-8.63607 -11.03139,-15.8101 -11.03139,-15.94229 0,-0.13218 2.78416,-0.24033 6.18701,-0.24033 h 6.18701 l 7.89018,11.83856 c 4.33961,6.51121 8.09297,11.83857 8.34081,11.83857 0.24784,0 4.00121,-5.32736 8.34081,-11.83857 l 7.89019,-11.83856 h 6.10218 c 3.35619,0 6.10217,0.12276 6.10217,0.2728 0,0.15003 -4.8432,7.15304 -10.76267,15.56224 -5.91946,8.4092 -10.89738,15.64051 -11.06203,16.06958 -0.24804,0.6464 9.91175,15.75356 19.52789,29.03708 l 1.85036,2.55606 -6.3687,-0.009 -6.3687,-0.009 -7.45693,-11.29145 c -4.10131,-6.2103 -7.61252,-11.28574 -7.80269,-11.27877 -0.19017,0.007 -3.71175,5.09218 -7.82573,11.30045 l -7.47996,11.28777 h -6.42237 -6.42237 z"
   id="path1654" /></g>
<g
   id="g1052">
</g>
<g
   id="g1054">
</g>
<g
   id="g1056">
</g>
<g
   id="g1058">
</g>
<g
   id="g1060">
</g>
<g
   id="g1062">
</g>
<g
   id="g1064">
</g>
<g
   id="g1066">
</g>
<g
   id="g1068">
</g>
<g
   id="g1070">
</g>
<g
   id="g1072">
</g>
<g
   id="g1074">
</g>
<g
   id="g1076">
</g>
<g
   id="g1078">
</g>
<g
   id="g1080">
</g>
</svg>
