<?xml version="1.0" encoding="UTF-8" standalone="no"?>
<svg
   xmlns:dc="http://purl.org/dc/elements/1.1/"
   xmlns:cc="http://creativecommons.org/ns#"
   xmlns:rdf="http://www.w3.org/1999/02/22-rdf-syntax-ns#"
   xmlns:svg="http://www.w3.org/2000/svg"
   xmlns="http://www.w3.org/2000/svg"
   xmlns:sodipodi="http://sodipodi.sourceforge.net/DTD/sodipodi-0.dtd"
   xmlns:inkscape="http://www.inkscape.org/namespaces/inkscape"
   version="1.1"
   id="Capa_1"
   x="0px"
   y="0px"
   width="319.634px"
   height="319.635px"
   viewBox="0 0 319.634 319.635"
   style="enable-background:new 0 0 319.634 319.635;"
   xml:space="preserve"
   sodipodi:docname="tex2.svg"
   inkscape:version="1.0.1 (c497b03c, 2020-09-10)"><metadata
   id="metadata146"><rdf:RDF><cc:Work
       rdf:about=""><dc:format>image/svg+xml</dc:format><dc:type
         rdf:resource="http://purl.org/dc/dcmitype/StillImage" /></cc:Work></rdf:RDF></metadata><defs
   id="defs144" /><sodipodi:namedview
   pagecolor="#ffffff"
   bordercolor="#666666"
   borderopacity="1"
   objecttolerance="10"
   gridtolerance="10"
   guidetolerance="10"
   inkscape:pageopacity="0"
   inkscape:pageshadow="2"
   inkscape:window-width="1007"
   inkscape:window-height="908"
   id="namedview142"
   showgrid="false"
   inkscape:zoom="2.0241838"
   inkscape:cx="159.817"
   inkscape:cy="159.8175"
   inkscape:window-x="2225"
   inkscape:window-y="210"
   inkscape:window-maximized="0"
   inkscape:current-layer="Capa_1" />
<g
   id="g109"
   style="fill:#ef525b;fill-opacity:1">
	<g
   id="g107"
   style="fill:#ef525b;fill-opacity:1">
		<path
   d="M318.765,9.888c-0.063-5.479-4.521-9.888-10-9.888H10.83c-5.523,0-10,4.478-10,10v55c0,5.522,4.477,10,10,10h22.596    c3.039,0,5.912-1.381,7.809-3.753L58.232,50h71.592v259.635c0,5.521,4.477,10,10,10h40c5.521,0,10-4.479,10-10V50.001h71.514    l17.08,21.263c1.898,2.363,4.769,3.737,7.799,3.737h22.588c2.66,0,5.212-1.061,7.089-2.946c1.877-1.885,2.926-4.441,2.911-7.102    L318.765,9.888z"
   id="path105"
   style="fill:#ef525b;fill-opacity:1" />
	</g>
</g>
<g
   id="g111">
</g>
<g
   id="g113">
</g>
<g
   id="g115">
</g>
<g
   id="g117">
</g>
<g
   id="g119">
</g>
<g
   id="g121">
</g>
<g
   id="g123">
</g>
<g
   id="g125">
</g>
<g
   id="g127">
</g>
<g
   id="g129">
</g>
<g
   id="g131">
</g>
<g
   id="g133">
</g>
<g
   id="g135">
</g>
<g
   id="g137">
</g>
<g
   id="g139">
</g>
</svg>
